<svg width="270" height="128" viewBox="0 0 270 128" fill="none" xmlns="http://www.w3.org/2000/svg">
<g clip-path="url(#clip0_1430:31972)">
<path d="M177.324 11.2C177.624 11.175 178.624 11.375 178.824 10.875C178.849 10.8 178.049 10.7 177.999 10.7C177.324 10.7 176.949 10.55 176.274 10.75C175.899 10.85 175.324 11.225 174.899 11.3C175.699 11.375 176.524 11.325 177.324 11.2Z" fill="#E7F3E2"/>
<path d="M237.15 9.425C236.625 9.05 236.45 9.1 235.825 9.1C235.75 9.1 232.875 9.05 232.55 8.725C232.325 8.5 235.8 8.625 235.925 8.575C236.15 8.52499 234.1 8.45 234.275 8.3C234.35 8.25 236.65 8.075 236.8 8.1C236.9 8.05 237.175 8.075 236.625 7.875C236.325 7.775 234.775 7.875 234.475 7.875C233.625 7.85 233.4 7.925 232.625 7.85C231.975 7.775 231.325 7.65 230.675 7.6C230.025 7.55 229.475 7.775 228.875 7.75C228.4 7.725 227.95 7.7 227.475 7.65C227 7.6 226.55 7.55 226.1 7.5L225.95 7.475C225.9 7.475 225.875 7.45 225.825 7.425C225.85 7.425 225.85 7.425 225.875 7.425C226.025 7.425 226.15 7.425 226.3 7.4C226.45 7.375 226.525 7.2 226.675 7.2C229.775 6.775 226.175 6.825 225.65 6.825C224.35 6.825 223.125 6.925 221.875 7.05C221.9 7 221.65 7.2 221.625 7.125C221.5 6.775 220.05 6.9 219.675 6.9C218.9 6.9 218.45 6.775 217.8 6.825C217.6 6.85 216.1 7 216.35 7.075C217.275 7.35 218.375 7.275 219.475 7.25C218.15 7.375 216.775 7.5 215.475 7.6C214.625 7.675 213.775 7.725 212.975 7.775C212.65 7.8 212.325 7.8 212 7.725C211.825 7.65 211.675 7.575 211.5 7.5C211.75 7.475 212.25 7.55 212.45 7.425C213.05 7.075 212.425 7.025 212.025 7.05C210.7 7.15 209.275 7.3 207.925 7.475C208.125 7.475 208.4 7.525 208.6 7.525L210.125 7.6C209.225 7.95 208.3 8.15 207.35 8.175C207.425 8.175 207.5 8.175 207.55 8.175C207.275 8.225 207 8.225 206.725 8.175C206.55 8.125 206.55 7.875 206.325 7.875C205.825 7.85 205.325 7.97499 204.9 8.2C203.825 8.7 202.675 9.17499 201.525 8.575C201.45 8.52499 203.475 8.175 202.375 8.25C200.925 8.4 199.5 8.675 198.075 9C197.65 9.1 196.975 9.275 197.225 9.4C197.475 9.525 198.875 9.09999 199.1 9.075C199.775 9.075 200.25 8.425 200.8 8.975C201.25 9.425 199.25 9.55 199.05 9.6C198.175 9.75 196.85 9.85 196 9.925C195.15 10 194.75 10.2 193.9 10.3C193.825 10.3 193.725 10.275 193.65 10.275C193.575 10.275 193.275 10.3 193.025 10.325L193.125 10.275C193.175 10.25 193.2 10.2 193.175 10.175C193.5 10.125 193.825 10.075 194.125 9.975C194.175 9.95 194.175 9.9 194.175 9.85C194.45 9.8 194.75 9.74999 195.025 9.69999H195.05C195.175 9.67499 195.275 9.675 195.4 9.675C195.45 9.675 195.5 9.62499 195.5 9.575C195.55 9.54999 195.575 9.475 195.55 9.425C195.525 9.4 195.525 9.375 195.475 9.375C195.35 9.375 195.225 9.375 195.125 9.4C194.95 9.425 194.8 9.45 194.625 9.45C194.6 9.45 194.55 9.475 194.55 9.5C194.275 9.5 193.975 9.55 193.7 9.6C193.4 9.65 193.1 9.7 192.8 9.775C192.7 9.775 192.575 9.8 192.475 9.8C193.175 8.525 193.95 7.275 194.8 6.075C195.475 5.15 196.575 4 195.875 2.7C195.725 2.4 195.325 2.5 195.075 2.325C194.9 2.175 194.725 2.025 194.525 1.9C194.325 1.8 194.025 1.875 193.85 1.775C193.575 1.625 193.65 1.425 193.425 1.2C193.075 0.824997 192.675 0.525003 192.075 0.550003C191.875 0.550003 191.65 0.625001 191.5 0.775001C191.35 0.875001 191.025 1.3 190.8 1.4C190.95 1.05 191.175 0.750001 191.375 0.400001C191.125 0.175001 190.85 -0.0250016 190.55 -0.150002C190.325 -0.200002 190.075 -0.249999 189.825 -0.224999C189.75 -0.224999 189.325 0.275 189 0.625C188.825 0.825 188 2.3 188.675 0.949997C188.775 0.699997 188.875 0.475 189.025 0.25C189.225 -0.075 189.525 -0.375 189.5 -0.375C189.475 -0.375 189.375 -0.349998 189.2 -0.224999C188.775 0.100001 188.325 0.949997 188.05 1.45C187.5 2.375 186.9 3.325 186.4 4.2C186.075 4.775 185.725 5.3 185.45 5.775C185.1 6.35 184.925 6.85 184.6 7.35C184.275 7.85 183.975 8.25 183.625 8.725C183.425 9 183.275 9.3 183.15 9.625C183.475 9.8 183.925 8.625 183.9 9.125C183.75 9.475 183.55 9.825 183.3 10.125C183.225 10.175 183.175 10.25 183.1 10.3C182.6 10.275 182 10.525 181.75 10.55C181.35 10.55 181.25 10.475 180.9 10.55C180.775 10.575 180.725 10.7 180.575 10.75C180.4 10.775 180.2 10.8 180.025 10.85C180.05 10.85 179.85 11.05 180.025 11.075C180.5 11.175 181.025 11.025 181.5 10.975C181.675 10.95 181.95 10.775 182.1 10.8C182.275 10.8 182.45 10.8 182.65 10.8C182.6 11.125 182.275 11.05 182 11.125C181.4 11.275 180.7 11.275 180.05 11.375C179.525 11.45 179 11.55 178.45 11.575C178 11.6 177.55 11.55 177.075 11.575C176.525 11.625 176.15 11.825 175.575 11.925C174.825 12.05 174.175 11.975 173.275 12.075C173.025 12.1 172.45 12.15 171.95 12.175C171.75 12.175 171.525 12.2 171.325 12.225C171.775 12.375 172.25 12.475 172.725 12.525C171.9 12.525 171.025 12.525 170.2 12.575C169.35 12.6 168.5 12.725 167.675 12.925C166.95 13.125 166.225 13.4 165.45 13.55C164.8 13.675 164.125 13.725 163.45 13.825C163.375 13.675 163.15 13.65 163 13.675C162.45 13.8 161.925 13.975 161.4 14.2C160.425 14.525 159.425 14.75 158.425 14.875C158.15 14.9 157.875 14.9 157.65 14.95C157.5 14.975 157.275 15.15 157.15 15.1C156.775 14.9 156.95 14.825 157.425 14.7C157.9 14.575 159.125 14.5 159.5 14.025C159.875 13.55 158.8 14.275 158.875 13.9C158.925 13.725 159.75 13.65 159.925 13.625C160.825 13.5 161.525 13.2 162.375 12.925C161.2 13.125 160.475 13.4 159.125 13.525C158.8 13.55 157 13.4 156.7 14.05C156.6 14.25 157.2 14.05 156.975 14.25C156.425 14.75 155.35 14.625 154.725 14.675C153.85 14.725 153.35 14.875 152.575 14.9C152.825 14.825 153.05 14.7 153.25 14.525L150.675 14.875C150.675 14.875 151.225 14.825 150.975 15C150.7 15.175 150.375 15.25 150.05 15.25C151.05 15.25 152.05 15.15 153.05 14.975C153.275 14.95 154.05 14.875 154.15 14.85C154.55 14.8 153.9 15.025 154.125 15.05C152.925 15.3 151.8 15.575 150.6 15.875C149.825 16.1 149 16.25 148.2 16.325C147.75 16.325 147.45 15.975 146.925 16.025C146.35 16.075 145.775 16.275 145.275 16.575C145 16.7 143.675 17.5 143.125 17.35C142.85 17.275 143.25 17.325 143.225 17.225C143.15 16.975 142.6 17.15 142.5 17.175C141.925 17.3 141.525 17.425 140.975 17.625C140.425 17.8 139.85 17.9 139.275 17.925C139.5 17.85 139.725 17.725 139.9 17.55C139.925 17.525 140.15 17.375 140.2 17.35C140.325 17.225 140.6 17.275 140.35 17.075C140.225 16.975 139.975 17.125 139.75 17.125C139.05 17.125 137.875 17.15 137.35 17.575C136.825 18 137.725 17.75 137.2 18.025C136.875 18.2 136.475 18.125 136.125 18.225C136.2 18.125 136.325 18.1 136.375 18C136.425 17.9 136.425 17.825 136.475 17.725C133.75 18.325 130.925 18.725 128.2 19.225H128.175C128.375 19.25 128.6 19.25 128.8 19.25C129 19.225 129.175 19.2 129.35 19.15C129.425 19.125 129.5 19.175 129.525 19.25C129.55 19.325 129.5 19.4 129.425 19.425C129.3 19.475 129.175 19.5 129.025 19.525C128.625 19.6 128.2 19.675 127.8 19.7C127.25 19.7 126.675 19.675 126.125 19.625C123.85 20.075 121.6 20.525 119.325 20.925C118.05 21.15 116.775 21.3 115.525 21.6C114.9 21.775 114.275 22 113.7 22.325C113.15 22.625 113.2 22.875 113.3 23.425C113.325 23.525 113.75 23.5 113.75 23.6C113.775 23.85 113.4 24.225 113.45 24.5C113.5 24.775 114.025 24.575 114.075 24.825C114.1 25 113.775 25.225 113.7 25.5C113.625 25.775 113.775 26.075 113.85 26.25C114.05 26.85 114.775 27.65 114.95 28.375C115 28.525 114.55 28.55 114.7 28.825C114.8 29 114.925 29.1 115.075 29.1C115.15 29.1 115.075 29.025 115.175 29.025C115.275 29.025 115.475 29.225 115.55 29.275C115.625 29.325 115.725 29.3 115.775 29.375C115.825 29.45 115.8 29.6 115.875 29.6C116.125 29.625 116.175 29.575 116.45 29.475C121.425 27.775 126.825 26.925 131.925 25.775C137.3 24.575 142.675 23.4 148.075 22.275C158.2 20.125 168.5 17.7 178.775 16.6C178.425 17.275 178.05 17.925 177.65 18.6C177.175 19.45 176.75 20.25 176.175 21.1C176.025 21.325 175.475 22.55 175.5 22.675C175.625 23.3 175.825 22.425 175.9 22.325C176.2 21.925 176.575 21.5 176.85 21.1C177.05 20.8 177.25 20.375 177.425 20.125C177.6 19.875 177.75 19.8 177.775 20.125C177.8 20.375 177.575 20.625 177.45 20.85C177.25 21.225 177.075 21.6 176.9 21.975C176.425 22.9 175.875 23.775 175.35 24.7C175.125 25.175 174.925 25.65 174.775 26.15C174.675 26.4 174.6 27.225 174.15 27.075C174 27.025 174.375 26.175 174.5 26.025C174.625 25.875 175.325 24.45 174.575 25.025C173.6 25.8 173 28.475 172.65 29.35C172.2 30.55 171.95 30.925 171.6 31.775C171.6 31.8 171.575 31.825 171.575 31.875C171.525 31.95 171.475 32.05 171.45 32.125C170.575 34.025 169.725 35.825 168.85 37.675C168.45 38.525 168.075 39.375 167.675 40.225C167.35 40.925 167 41.55 166.65 42.225C164.925 45.725 163.15 49.225 161.375 52.7C160.9 53.65 160.5 54.625 160.025 55.575C159.55 56.525 159.075 57.425 158.55 58.4C157.525 60.3 156.475 61.875 155.325 63.9C155 64.475 153.85 67.425 152.575 66.25C151.9 65.625 152.475 64.5 152.625 63.7C152.825 62.65 153.075 61.625 153.4 60.625C154.075 58.625 154.9 56.7 155.875 54.825C156.3 54 156.9 53.3 157.35 52.525C157.825 51.725 158.275 50.875 158.675 50.025C159 49.325 159.125 48.975 158.45 48.475C158.2 48.275 157.9 48.15 157.575 48.125C157.05 48.15 157.05 47.775 156.85 47.575C156.725 47.475 156.6 47.425 156.45 47.375C156.4 47.35 156.05 47.65 156 47.625C155.95 47.6 156.1 47.375 156.05 47.275C156 47.175 155.925 47.075 155.825 47.025C155.375 46.775 155.4 46.675 155.15 46.6C154.925 46.55 154.7 46.55 154.45 46.575C153.55 46.575 153.125 47.225 152.6 47.825C151.25 49.4 149.925 50.925 148.6 52.475C147.275 54.025 146.025 55.55 144.6 57C143.725 57.875 142.925 58.7 142.075 59.625C141.225 60.55 140.35 61.325 139.45 62.3C138.95 62.825 138.275 63.75 137.375 63.725C137.025 63.7 137.05 63.525 137.1 63.175C137.175 62.675 137.3 62.2 137.475 61.725C138.225 59.85 139.1 58.025 140.1 56.275C141.225 54.225 142.5 52.275 143.925 50.425C145.15 48.875 146.55 47.525 147.875 46.075C149.05 44.825 150.25 43.525 151.575 42.425C152.925 41.325 154.5 40.525 156.2 40.1C156.825 39.925 157.5 40.05 158.15 39.825C158.325 39.8 158.5 39.725 158.65 39.625C158.675 39.6 158.9 39.475 158.925 39.4C158.95 39.325 158.725 39.075 158.75 39.05C158.775 39.025 159.05 39.2 159.1 39.1C159.15 38.95 159.175 38.775 159.15 38.6C159.15 38.525 159.275 38.525 159.275 38.45C159.175 38.05 158.725 37.75 158.4 37.5C158.075 37.25 157.8 37.025 157.5 36.825C157.075 36.55 156.625 36.3 156.15 36.075C155.475 35.725 154.85 35.2 154.1 34.975C153.2 34.7 152.15 34.5 151.225 34.7C149.65 35.1 148.175 35.8 146.9 36.75C145.475 37.775 144.15 38.9 142.925 40.15C141.475 41.6 140.2 43.125 138.775 44.7C138.6 44.9 137.425 45.775 137.95 46.175C138.175 46.325 138.45 45.65 138.6 45.5C138.95 45.1 139.4 44.7 139.775 44.325C138.65 45.8 137.4 47.225 136.325 48.725C136.325 48.725 136.4 48.7 136.45 48.675C136.25 49 136.125 49.375 136.2 49.425C136.8 49.725 136.85 48.6 137.3 48.55C137.3 48.55 136.975 49.275 136.925 49.325C136.675 49.725 136.45 50.175 136.275 50.525C135.825 51.425 135.35 52.225 134.825 53.05C134.525 53.475 134.25 53.9 134.025 54.375C133.875 54.775 133.825 55.175 133.7 55.575C133.3 56.7 132.9 57.8 132.575 58.925C132.35 59.65 132.225 60.4 132 61.125C132.075 60.375 132.175 59.625 132.325 58.9C132.475 58.275 132.7 57.65 132.7 57C132.525 57.45 132.2 57.825 131.975 58.25C131.925 57.325 132.4 56.35 132.775 55.6C132.975 55.2 133.575 54.45 132.975 54.425C132.575 55.175 132.225 55.925 131.9 56.7C131.85 56.3 131.9 55.875 132.05 55.475C132.15 55.175 132.35 54.875 132.425 54.575C132.35 54.7 132.2 54.775 132.1 54.875C131.975 55.05 131.85 55.25 131.775 55.45C131.5 55.925 131.35 56.55 131.075 56.975C130.825 57.35 130.575 57.7 130.3 58.025C130 58.45 129.575 58.8 129.225 59.225C127.65 61.175 126 63.075 124.375 65C122.75 66.925 121.35 69 119.55 70.75C118.775 71.5 117.775 72.2 116.675 71.8C115.475 71.375 115.25 70.375 115.275 69.2C115.35 66.65 116 64.2 116.8 61.75C116.9 61.35 117.1 60.95 117.35 60.6C117.625 60.275 118.025 60.1 118.4 59.9C119.35 59.375 120.325 58.9 121.275 58.425C122.35 57.875 123.4 57.325 124.275 56.475C125.05 55.7 125.925 55.05 126.675 54.275C127.15 53.8 127.35 53.175 127.725 52.65C127.9 52.425 128.05 52.175 128.225 51.95C128.525 51.6 128.925 51.3 129.2 50.95C129.7 50.35 130.225 49.75 130.65 49.1C131.35 48.05 132.125 46.975 132.65 45.825C133.2 44.6 133.3 43.525 133.2 42.2C133.125 41.625 133 41.05 132.85 40.475C132.775 40.225 132.65 40.025 132.475 39.85C132.325 39.65 131.975 39.425 132.4 39.4C131.35 38.875 130.4 38.225 129.325 37.775C128.95 37.625 128.575 37.6 128.175 37.425C127.775 37.25 127.35 36.85 126.875 36.825C125.625 36.775 124.5 36.825 123.425 37.525C122.2 38.3 121.3 39.425 120.35 40.5C119.475 41.475 118.725 42.575 117.925 43.6C117.075 44.725 116.325 45.875 115.575 47.05C115.175 47.675 114.8 48.325 114.4 48.975C114.25 49.2 114.125 49.45 114 49.7C113.9 49.95 113.95 50.225 113.825 50.475C113.575 50.9 113.125 51.15 112.85 51.575C112.525 52.075 112.375 52.65 112.15 53.175C112.375 52.925 112.625 52.675 112.875 52.45C112.475 53.025 112.175 53.675 111.95 54.325C112.375 53.8 112.725 53.25 113 52.625C113.125 52.35 113.325 51.45 113.775 51.325C113.875 51.3 113.5 52.025 113.825 51.525C114.225 50.9 115.65 48.6 116.15 47.925C116.425 47.55 116.075 48.325 115.9 48.6C116.125 48.525 114.275 51.45 114.125 51.825C113.825 52.4 113.625 53 113.3 53.575C113.225 53.725 112.9 53.975 112.975 54.175C113.1 54.475 113.325 54.125 113.375 54.025C113.775 53.4 114.1 52.8 114.475 52.15C114.55 52.025 114.725 51.625 114.9 51.95C114.975 52.125 114.7 52.4 114.625 52.525C114.3 53.05 114.075 53.6 113.775 54.1C113.475 54.6 113.025 54.95 112.7 55.45C112.325 56.05 112.125 56.775 111.75 57.4C111.6 57.65 111.325 57.825 111.175 58.075C111.05 58.275 111.075 58.725 110.825 58.775C110.575 58.825 110.8 58.15 110.875 58.075C110.95 58 111.225 57.1 111.025 57.2C110.325 57.5 110.3 58.325 110.15 59C110.175 58.925 110.225 58.85 110.275 58.8C110.075 59.125 110.025 59.6 109.925 59.925C109.85 60.325 109.7 60.7 109.475 61.025C109.025 61.7 108.525 62.325 107.975 62.925C108.125 62.325 108.425 61.775 108.8 61.3C108.175 61.375 107.6 62.5 107.35 62.825C106.1 64.65 105 66.25 103.8 67.95C103.175 68.825 102.65 69.65 101.95 70.475C101.25 71.3 100.45 72 99.7248 72.775C99.3248 73.2 98.9498 73.675 98.5748 74.125C98.3498 74.4 98.1498 75.05 97.8248 75.15C97.0748 75.325 97.5498 74.525 97.6498 74.175C98.4248 71.975 99.1998 69.8 100.15 67.675C101.05 65.675 101.95 63.625 102.975 61.65C103.65 60.375 104.425 59.15 105.15 57.875C105.575 57.1 106.125 56.45 106.525 55.625C106.925 54.8 107.375 53.875 106.85 52.95C106.325 52.025 105.05 51.725 104.225 51.325C103.225 50.825 102.15 50.5 101.075 50.3C99.7748 50.1 98.9498 50.45 97.7748 50.975C97.2248 51.225 96.6748 51.625 96.0748 51.9C95.7248 52.025 95.3998 52.2 95.0748 52.4C95.1248 51.85 95.1498 51.25 95.3748 50.725C95.6498 50.125 96.1748 49.625 96.5498 49.1C97.0748 48.375 97.5498 47.7 98.0498 47C98.4248 46.45 98.8748 45.9 99.0748 45.3C99.2748 44.7 98.9748 44.325 98.8748 43.825C98.7998 43.475 98.7748 43.525 98.8998 43.175C98.9748 42.975 99.3498 42.7 99.3498 42.425C99.3498 41.8 98.9248 41.5 98.4248 41.225C97.7748 40.9 97.1498 40.6 96.4748 40.3C95.9498 40.075 95.4498 39.825 94.8748 39.6C94.2248 39.35 93.7748 39.075 93.0498 39.375C92.0748 39.825 91.2748 40.6 90.7998 41.575C90.5498 42.125 90.2748 42.65 89.9498 43.175C89.8248 43.375 89.6498 43.575 89.4498 43.725C89.3498 43.8 89.2248 43.675 89.1248 43.75C88.5998 44.15 88.3248 44.7 87.8998 45.225C87.7748 45.375 87.1748 46.15 87.2498 46.275C87.5748 46.675 87.7498 45.9 87.9498 45.75C88.1498 45.6 88.2748 45.425 88.5248 45.6C88.6248 45.65 88.4998 45.95 88.7748 45.8C88.8248 45.775 89.1498 45.4 89.1498 45.4C89.2748 45.65 88.8748 45.925 88.7498 46.1C88.4248 46.55 88.2248 47 87.8248 47.4C87.6998 47.525 87.4998 47.425 87.3748 47.6C87.0248 48.025 86.7748 48.475 86.5748 48.975C86.3998 49.425 86.2998 49.825 86.1248 50.225C85.9498 50.625 85.8498 50.95 85.6498 51.375C85.4248 51.85 85.1998 52.225 84.9498 52.775C84.7998 53.125 84.6998 53.475 84.6498 53.85C84.6498 53.125 84.7998 52.4 85.0998 51.75C85.3998 51.05 85.6748 50.525 85.7998 49.8C85.7498 49.925 85.4248 50.4 85.4498 50.275C85.5748 49.7 86.3748 49.075 86.1998 48.425C86.0498 47.925 85.7498 48.675 85.6748 48.85C85.4498 49.375 85.1248 49.775 84.9248 50.35C84.0748 52.625 83.6998 54.75 84.2748 57.125C84.3998 57.65 84.7748 57.9 85.0498 58.275C85.2748 58.575 85.1498 58.6 84.9248 58.925C84.2998 59.775 83.6498 60.675 82.9998 61.525C82.1998 62.55 81.4248 63.6 80.5498 64.55C79.6748 65.5 78.7748 66.4 77.8998 67.35C77.0998 68.2 76.3498 69.1 75.5248 69.95C75.0248 70.475 74.2248 71.05 73.7498 71.5C72.8248 72.4 72.0248 73.05 71.4248 74.175C71.7998 73.9 72.1748 73.6 72.5248 73.35C72.6748 73.25 73.4248 72.1 73.4498 72.775C73.4498 73.075 72.3998 74.175 71.9748 74.325C71.9998 74.7 71.8248 75.1 71.5248 75.225C70.9998 75.425 71.3748 74.95 70.8748 74.95C70.5248 74.95 70.2748 75.225 69.9498 75.525C69.6248 75.825 68.9748 76.25 68.7498 76.725C68.7998 76.725 68.8748 76.7 68.9498 76.7C68.7998 76.85 68.4248 77.075 68.4248 77.275C68.4498 77.625 68.7248 77.325 68.8998 77.15C68.9498 77.1 69.7498 76.45 69.7498 76.475C69.8248 76.85 69.2998 77.175 68.9998 77.4C69.5998 77.1 70.1748 76.725 70.7248 76.325C70.7748 76.275 70.8998 76.175 70.8748 76.35C70.8498 76.8 69.7248 77.4 69.5748 77.5C69.0248 77.925 68.9748 78.125 69.4998 77.85C68.8748 78.45 68.1748 79 67.4248 79.475C67.5498 79.35 67.9998 79.075 67.5498 79C67.2998 78.975 66.6998 79.65 66.5998 79.75C66.0998 80.225 65.4998 80.6 65.1248 81.025C64.7498 81.45 65.0498 81.3 65.2998 81.275C65.0248 81.5 64.7748 81.775 64.5498 82.05C64.2748 82.3 63.9498 82.55 63.6248 82.75C63.5998 82.775 63.9248 82.5 63.6748 82.55C62.9998 82.7 62.3748 83.4 61.9998 83.875C61.4998 84.5 61.8998 84.175 62.1998 84.225C62.7498 84.325 62.1498 84.7 61.8998 84.925C61.5748 85.25 61.1748 85.625 60.7998 86C60.4748 86.35 60.1248 86.65 59.6998 86.875C59.4248 87 59.2748 86.9 58.9998 87.025C58.6998 87.2 58.4498 87.45 58.2748 87.725C58.0998 87.95 58.1248 88.15 57.9498 88.35C57.6498 88.65 57.3248 88.9 56.9748 89.15C56.1248 89.825 55.3498 90.5 54.4748 91.15C53.7998 91.675 53.0498 92.075 52.2248 92.3C52.8998 91.875 53.5498 91.375 54.1498 90.825C54.4498 90.55 54.6998 90.225 54.9998 89.925C54.9998 89.925 55.4248 89.6 55.1748 89.65C54.6498 89.775 54.2248 90.5 53.8748 90.75C53.1498 91.25 52.4748 91.425 51.7248 91.75C51.1248 92 50.6748 92.35 50.0998 91.825C49.6248 91.4 49.6248 90.625 49.6248 90C49.5998 89.25 49.6498 88.5 49.6498 87.75C49.6248 87.2 49.6998 86.65 49.8498 86.125C50.0248 85.425 50.0998 84.575 50.2498 83.825C50.4998 82.475 50.8998 81.125 51.1748 79.75C51.2998 79.075 51.4748 78.4 51.6248 77.75C51.8248 76.975 52.0498 76.25 52.2498 75.475C52.4498 74.8 52.6748 74.125 52.9498 73.475C53.0248 73.3 53.4248 72.2 52.8748 72.3C52.7998 72.325 52.7248 72.35 52.6748 72.4C52.7998 72.05 52.9498 71.7 53.1248 71.375C53.3498 71 53.4748 70.575 53.4998 70.15C53.5748 69.6 53.6748 69.025 53.8498 68.5C53.9748 68 54.0498 67.5 54.1248 66.975C54.3498 66 54.6498 65.05 55.0498 64.125C55.3248 63.4 55.6498 62.575 55.9248 61.8C56.0748 61.325 56.1998 60.725 56.5248 60.325C56.8998 59.85 57.3498 59.65 57.6248 59.1C57.7998 58.775 57.7998 58.3 57.9748 57.925C58.2498 57.35 58.5998 56.725 58.8998 56.15C59.4498 55.175 59.8998 54.15 60.2498 53.1C60.3498 52.75 60.6498 52.05 60.0748 52.375C59.6748 52.6 59.4998 53.275 59.2748 53.725C58.9998 54.325 58.6998 54.95 58.3998 55.575C58.2248 55.925 58.0998 56.75 57.6998 56.9C57.0498 57.15 57.4248 56.3 57.5498 56.05C57.7748 55.525 58.0248 54.975 58.2498 54.475C58.4748 53.95 58.7748 53.475 59.0998 53.025C59.4498 52.5 59.7498 51.775 60.0748 51.2C60.1498 51.55 60.4498 51.2 60.5248 51.1C60.7748 50.8 60.9998 50.475 61.2248 50.15C61.7748 49.2 62.1748 48.2 62.6998 47.275C63.5248 45.85 64.3998 44.475 65.1998 43.05C66.8498 40.175 68.5998 37.35 70.3748 34.55C70.5748 34.25 70.6748 33.925 70.8748 33.625C71.0748 33.325 71.3498 33.125 71.5748 32.85C72.0498 32.225 72.3498 31.525 72.9248 30.975C73.4998 30.425 74.0998 29.95 74.5998 29.3C75.2498 28.475 75.9498 27.675 76.6748 26.875C77.2748 26.225 77.8498 25.475 78.3998 24.775C78.9998 24 79.6498 23.275 80.3748 22.625C81.8748 21.15 83.3248 19.85 84.8748 18.325C85.2748 17.95 85.9998 16.9 86.7498 17.475C86.9998 17.675 86.8998 18.1 86.8998 18.375C86.8748 18.925 86.9248 19.5 86.8498 20.025C86.6998 21.15 86.4498 22.25 86.0498 23.3C85.8248 23.9 85.5248 24.45 85.2498 25.05C84.9748 25.575 84.7498 26.125 84.5498 26.675C84.3748 26.575 84.2998 26.975 84.2498 27.05C84.1248 27.3 83.9998 27.5 83.8998 27.725C83.6748 28.175 83.5248 28.625 83.2998 29.075C82.8998 29.9 82.4748 30.7 81.9748 31.475C81.4998 32.225 81.1248 33 80.6998 33.775C80.1998 34.65 79.3248 35.45 78.8248 36.3C78.5998 36.675 78.7748 36.85 79.0998 37.2C79.3248 37.375 79.5748 37.475 79.8498 37.525C80.0998 37.55 80.3248 37.275 80.5748 37.325C80.8248 37.375 80.5498 37.6 80.7998 37.75C81.1248 37.925 81.4998 38.05 81.8498 38.1C82.0248 38.125 82.0248 37.9 82.0998 37.925C82.2998 37.975 82.2248 38.325 82.4248 38.3C83.2748 38.275 83.6998 38.05 84.2748 37.375C84.5248 37.075 84.7998 36.725 85.1248 36.375C85.3248 36.15 85.6248 35.675 85.9248 35.5C85.9248 35.55 85.8998 35.6 85.8998 35.675C86.1498 35.475 86.3748 34.975 86.4998 34.725C86.7748 34.2 87.0748 33.725 87.3498 33.275C87.8248 32.45 88.2748 31.6 88.6498 30.775C89.0248 29.95 89.5998 29.125 89.8748 28.35C90.1998 27.4 89.3998 28.25 89.1998 28.475C89.3248 27.825 89.4998 27.2 89.7248 26.575C89.5248 26.85 89.2498 27.05 89.0498 27.3C88.7748 27.675 88.5998 28.1 88.3248 28.5C88.4248 28.25 88.4748 28 88.5998 27.725C88.7498 27.375 88.9498 27.075 89.1248 26.725C89.1998 26.575 89.2748 26.4 89.3498 26.225C89.3748 25.975 89.2998 25.85 89.3248 25.6C89.3998 25.125 89.5498 24.675 89.7498 24.25C90.0748 23.525 90.3748 22.825 90.6748 22.125C90.9748 21.425 91.2498 20.775 91.5248 20.1C91.7998 19.425 91.9998 18.575 92.4248 17.975C92.6748 17.625 92.6498 17.9 92.5498 18.175C92.3748 18.875 92.1248 19.525 91.8498 20.175C91.3248 21.275 90.7748 22.425 90.3248 23.55C90.1998 23.8 90.1248 24.05 90.0248 24.3C89.9748 24.525 90.1248 24.6 90.0248 24.8C89.9248 25 89.3998 25.375 89.8998 25.5C89.9998 25.525 90.2748 25.125 90.2998 25.025C90.4748 24.675 90.5998 24.35 90.7498 24.025C90.9998 23.475 91.2998 22.95 91.5748 22.4C91.9248 21.7 92.1998 21 92.4998 20.25C92.6248 19.95 92.7248 19.625 92.8748 19.3C92.8748 19.275 93.1748 18.85 92.9998 18.8C92.9498 18.775 92.9498 18.875 92.8998 18.9C92.9998 18.7 93.0248 18.425 93.0998 18.225C93.1998 17.95 93.3248 17.7 93.4248 17.45C93.3248 17.625 93.2998 17.85 93.3998 18.05C93.5748 18.325 93.6748 17.8 93.6998 17.7C93.8998 17.075 94.0748 16.475 94.2748 15.875C94.1998 16.35 94.1748 16.85 94.0748 17.325C93.8998 18.15 93.0248 20.35 92.7748 21.1C93.3998 20.725 94.3248 17.925 94.4498 17.425C94.7998 15.95 95.2248 14.95 95.1498 13.55C95.0748 12.35 94.3248 11.775 93.3998 11.175C92.9498 10.9 92.4998 10.65 92.0248 10.45C91.5498 10.25 91.0748 10.2 90.6248 10.025C90.1748 9.85 89.7498 9.725 89.3248 9.525C88.9248 9.325 88.4998 9.15 88.0498 9C88.0498 9 87.8998 8.95 87.8748 8.95C87.6998 8.89999 87.4998 8.925 87.3248 8.875C87.0998 8.775 86.8748 8.7 86.6248 8.625C86.3248 8.6 85.9998 8.65 85.6998 8.75C85.2748 8.875 84.8748 9.075 84.5248 9.3C83.6748 9.95 83.0248 10.625 82.1248 11.125C82.1998 11.05 82.3248 10.825 82.1248 10.85C81.9248 10.875 81.7748 11.125 81.6498 11.225C81.1998 11.65 80.7248 12.075 80.2748 12.475C80.1248 12.6 79.4248 12.925 79.7748 13.075C79.9748 13.175 80.2998 12.75 80.5248 12.75C80.4248 12.875 80.4248 13.05 80.3248 13.2C80.2248 13.325 80.0748 13.45 79.9248 13.55C79.3748 14.025 78.8248 14.475 78.2998 14.95C77.1998 15.95 76.1248 17.025 75.0748 18.075C74.1248 19.05 73.1498 20.05 72.2248 20.975C71.8998 21.3 71.5748 21.425 71.2498 21.75C70.7498 22.25 70.2748 22.775 69.7998 23.35C68.8248 24.475 67.9498 25.575 66.9498 26.775C66.8248 26.925 65.4998 27.95 66.1498 28.225C66.4498 28.35 66.6998 27.425 67.0748 27.6C67.4498 27.775 66.8998 28.15 66.6998 28.35C66.3248 28.775 65.9248 30.075 65.1498 29.825C64.8748 29.725 65.8748 28.3 64.7498 29.375C64.3248 29.825 63.9248 30.3 63.5748 30.825C63.1498 31.325 62.7998 31.85 62.4498 32.4C62.9998 31.85 63.5498 31.275 64.0998 30.7C63.8998 31.45 63.4248 32.025 62.9748 32.625C62.3998 33.375 62.0498 34.1 61.5248 34.875C60.9498 35.75 60.3498 36.5 59.6748 37.425C59.5248 37.6 58.1748 38.725 58.8248 39.075C59.1998 39.275 59.3748 37.825 59.9248 38.05C60.1998 38.15 59.4748 39.025 59.3998 39.15C59.0748 39.625 58.9248 40.1 58.6498 40.575C58.8498 40.4 58.9998 39.7 59.3498 40.05C59.6998 40.4 58.3998 41.8 58.3248 41.825C57.5498 42.15 58.3998 41.325 58.0998 41.25C57.6498 41.15 57.6498 41.65 57.3748 42C57.0998 42.35 56.1748 43.225 56.5498 43.775C56.5998 43.875 56.9748 42.75 57.0998 42.975C57.3248 43.35 56.2998 44.9 57.3248 43.85C57.9248 43.225 58.6748 42.125 59.2498 41.275C59.8248 40.425 60.4248 39.45 60.9498 38.525C61.5498 37.5 62.1998 36.525 62.9248 35.575C62.5748 36.7 62.0748 37.8 61.4248 38.775C60.6748 40.025 59.9748 41.225 59.2498 42.475C58.6748 43.45 58.1248 44.45 57.5998 45.475C57.3248 46.025 57.0748 46.475 56.7498 47.075C56.5748 47.4 56.2498 47.95 55.7998 47.975C55.9498 47.7 56.1498 47.125 55.5498 47.35C54.9498 47.575 54.6998 48.525 54.4748 49.05C53.8998 50.3 53.4748 51.625 53.2248 52.975C53.5498 52.325 53.8748 51.775 54.4998 51.375C54.0248 52.525 53.5498 53.6 53.0748 54.8C52.7998 55.65 52.4498 56.475 52.0248 57.25C52.0998 56.775 52.1998 56.3 52.3248 55.825C52.3998 55.625 52.5748 55.45 52.5998 55.225C52.6248 55 52.5248 54.9 52.4998 54.7C52.3248 55.225 52.1248 55.55 51.9248 56.075C51.6248 56.825 51.5498 57.225 51.2248 58.225C51.0498 58.725 50.5248 60.35 49.8998 60.825C49.9248 60.5 49.9248 60.175 49.8998 59.875C49.5748 60.4 49.3248 60.975 49.1498 61.575C49.0998 61.825 49.1998 61.95 49.1748 62.15C49.0998 62.35 49.0248 62.55 48.8998 62.75C48.4248 63.625 47.9998 64.525 47.6498 65.475C47.2998 66.425 46.9748 67.45 46.6498 68.425C46.4998 68.9 46.3998 69.425 46.2498 69.9C46.1998 70.025 46.1748 70.175 46.1498 70.3C46.5498 70.325 46.7998 70.075 47.0998 69.825C46.9498 70.525 46.7248 71.2 46.4748 71.875C46.4248 72.025 46.2498 72.425 46.5248 72.55C46.6998 72.625 46.7998 72 46.7998 72C47.0748 71.225 47.4498 70.65 47.6998 69.9C47.9498 69.15 48.1498 68.425 48.3748 67.6C48.5248 66.975 48.7498 66.2 48.9498 65.525C49.1998 64.625 49.5248 63.75 49.9248 62.9C50.5248 61.6 51.1998 60.325 51.9498 59.1C51.9748 59.225 51.9498 59.35 51.9498 59.475C51.8248 59.775 51.7248 60.05 51.5998 60.35C50.8248 62.3 50.1248 64.3 49.4748 66.275C49.2748 66.9 48.9748 67.4 48.7498 68C48.5248 68.6 48.3498 69.2 48.2748 69.85C48.1748 70.5 48.0498 71.15 47.8748 71.8C47.6998 72.375 47.4248 72.875 47.2748 73.475C46.6248 76.075 45.8748 78.65 45.2248 81.25C44.4998 84.1 44.2498 86.975 44.0248 89.9C43.8498 87.95 43.8498 85.975 44.0498 84.025C44.0998 83.65 44.2498 83.2 44.2498 82.775C44.2498 82.625 44.0998 82.475 44.0998 82.25C44.0998 81.925 44.1248 81.575 44.2248 81.25C44.2748 81.075 44.4498 80.575 44.3748 80.35C44.2248 80.575 44.0998 80.825 43.9498 81.05C43.9498 80.875 43.9998 80.45 43.7248 80.85C43.4498 81.25 43.4498 81.725 43.2998 82.25C43.1998 82.6 42.9248 83.2 43.0498 83.625C43.0498 83.65 43.0748 83.675 43.0748 83.675C43.2248 83.475 43.1998 82.775 43.5748 83.25C43.7748 83.5 43.4998 84.4 43.3998 84.7C43.2498 85.175 43.2248 85.575 42.9498 85.95C42.8498 86.075 42.7248 85.925 42.6498 86.05C42.4998 86.3 42.5248 86.75 42.4998 86.975C42.3998 88.375 42.3998 89.775 42.4498 91.175C42.4748 91.775 42.6248 92.35 42.6748 92.95C42.7248 93.45 42.5998 93.85 42.8998 94.3C43.3748 94.975 44.1498 95.375 44.9248 95.65C46.0498 96.025 47.1248 96.45 48.2748 96.725C48.8248 96.85 49.3998 96.9 49.9748 96.925C50.7248 96.975 51.4498 97.175 52.2248 97.15C53.5748 97.1 54.9498 96.975 56.1748 96.4C57.5248 95.775 58.6998 94.85 59.8248 93.925C61.1498 92.875 62.3248 91.75 63.5498 90.65C65.9748 88.425 68.2998 86.125 70.6498 83.8C71.7748 82.7 72.7748 81.525 73.8748 80.4C74.8498 79.4 75.8998 78.475 76.8748 77.45C77.9498 76.275 78.9998 75.075 80.0748 73.85C80.5248 73.325 80.8748 72.775 81.3498 72.225C81.8248 71.675 82.3748 71.225 82.8498 70.625C84.8998 68 86.8248 65.325 88.7748 62.55C89.0998 62.1 89.4248 61.375 90.0248 61.15C90.3748 61 90.8248 61.2 91.1998 61.15C91.6998 61.125 92.1998 61.05 92.6748 60.9C94.2748 60.25 95.6498 59.35 97.1248 58.5C96.4248 60.125 95.5998 61.7 94.8998 63.325C94.1998 64.95 93.5748 66.575 92.8748 68.175C91.5248 71.3 90.5498 74.35 90.1998 77.75C90.1498 78.425 90.3498 79.075 90.7748 79.625C91.2498 80.275 91.8498 80.5 92.6248 80.7C94.1248 81.1 95.6498 81.375 97.1998 81.5C97.9748 81.525 98.7498 81.35 99.4498 81.05C100.05 80.8 100.15 80.425 100.475 79.975C100.8 79.525 101.15 79.1 101.425 78.625C101.8 78 102.025 77.3 102.375 76.7C103.325 75.125 104.375 73.65 105.4 72.125C105.8 71.525 106.15 70.95 106.575 70.35C106.825 70.025 107.075 69.675 107.275 69.325C107.375 69.125 107.525 68.725 107.725 68.55C108.05 68.275 108.275 67.875 108.3 67.425C108.2 67.625 107.85 67.875 107.7 67.975C107.3 68.25 106.925 68.575 106.575 68.9C106.525 68.7 106.975 68.325 107.025 68.275C107.4 67.85 107.75 67.4 108.075 66.925C108.65 66.1 109.275 65.325 109.975 64.6C109.925 65.2 110 65.8 109.8 66.35C109.75 66.475 109.575 66.05 109.55 66.3C109.225 68.025 109.55 69.575 109.925 71.275C109.7 70.875 109.525 70.45 109.375 70.025C109.275 69.675 109.25 69.275 109.15 68.9C109.025 68.375 108.85 67.85 108.725 67.3C108.725 67.6 108.575 67.875 108.575 68.175C108.575 68.7 108.675 69.2 108.625 69.725C108.5 69.45 108.35 69.175 108.15 68.925C108.175 69.125 108.175 69.3 108.175 69.5C108.2 69.825 108.25 70.15 108.325 70.475C108.475 71.15 108.55 71.9 108.85 72.475C109.425 73.625 110.375 74.5 111.575 74.975C112.2 75.25 112.85 75.375 113.45 75.725C113.8 75.975 114.2 76.15 114.6 76.3C115.55 76.5 116.5 76.925 117.475 76.825C119.975 76.55 121.7 75.275 123.45 73.6C124.625 72.475 125.475 71.325 126.575 70.125C127.15 69.5 127.65 68.975 128.325 68.225C128.575 67.95 129.075 66.9 129.75 67.05C130.175 67.15 130.175 68.2 130.25 68.425C130.525 69.225 130.975 69.95 131.575 70.55C132.025 71.1 132.525 71.6 133.075 72.025C133.675 72.475 134.425 72.675 135.2 72.875C135.975 73.075 136.75 73.55 137.6 73.4C138.35 73.275 138.95 72.55 139.4 72.025C140.525 70.75 141.5 69.475 142.65 68.225C143.8 66.975 144.9 65.725 145.925 64.4C146.1 64.175 146.25 63.85 146.45 63.7C146.725 63.525 146.75 63.575 146.85 63.875C146.9 64.15 146.9 64.425 146.875 64.7C146.875 65.275 146.825 65.85 146.85 66.425C146.875 67.35 146.85 68.225 147.1 69.15C147.325 69.95 147.675 70.775 148.45 71.2C149.225 71.625 150.1 71.525 150.95 71.625C151.9 71.725 152.8 72.025 153.75 71.975C154.625 71.975 155.475 71.6 156.1 70.95C156.8 70.25 157.3 69.325 157.85 68.475C158.45 67.55 159.05 66.625 159.6 65.675L159.65 65.625C159.925 65.375 160.175 65.1 160.35 64.8C160.5 64.7 160.65 64.575 160.775 64.425C161.175 63.925 161.275 63.425 161.675 62.925C161.85 62.7 163.025 61.025 162.6 60.9C161.55 60.6 161.275 62.225 160.7 62.8C161.1 61.975 161.55 61.15 162.025 60.375C162.2 60.1 162.425 59.925 162.6 59.625C162.725 59.45 162.825 59.275 162.9 59.1C162.9 59.1 162.95 58.8 162.875 58.85C162.7 58.975 162.575 59.175 162.375 59.325C162.525 59.075 162.6 58.775 162.6 58.475C162.2 59.175 161.775 59.825 161.35 60.5C161.85 59.475 162.35 58.525 162.85 57.5C162.875 57.45 162.9 57.4 162.925 57.35C163.125 56.975 163.325 56.625 163.55 56.25C163.775 55.875 163.975 55.5 164.175 55.125L164.2 55.075C164.25 55.075 164.3 55.1 164.325 55.15C164.275 55.325 164.25 55.5 164.2 55.675C164.175 55.8 164.15 55.925 164.125 56.05C164.1 56.125 164.05 56.175 164.05 56.2C163.775 56.775 163.55 57.25 163.35 57.775C163.3 57.875 163.25 57.95 163.2 58.05C163.2 58.075 163.2 58.075 163.2 58.1C163.2 58.2 163.325 58.225 163.375 58.15C163.575 57.85 163.775 57.525 163.95 57.2C164.225 56.8 164.475 56.375 164.65 55.925C165.1 54.85 165.475 53.775 165.925 52.7C165.625 55.925 165.35 59.125 165.35 62.375C165.35 63.925 165.4 65.5 165.525 67.05C165.575 67.675 165.7 68.325 166.125 68.825C166.55 69.325 167.15 69.5 167.725 69.7C169.125 70.15 170.45 70.7 171.925 70.525C172.325 70.475 172.7 70.4 173.075 70.275C173.925 69.675 174.675 68.95 175.325 68.15C176.125 67.2 176.9 66.225 177.65 65.225C178.2 64.475 178.65 63.6 179.2 62.825C179.35 62.4 179.525 62 179.775 61.625C179.85 61.475 179.925 61.35 180 61.2C180 61.225 180 61.25 180 61.25C180.05 61.475 180.1 61.7 180.175 61.925C180.6 62.6 181.05 63.275 181.55 63.9C181.95 64.35 182.425 64.725 182.925 65.025C183.85 65.55 184.85 65.975 185.875 66.275C186.95 66.575 188.1 66.625 189.2 66.425C190.45 66.175 191.65 65.9 192.85 65.6C193.675 65.4 194.475 65.125 195.225 64.75C196.275 64.225 197.15 63.5 198.1 62.875C198.65 62.5 199.2 62.175 199.8 61.825C200.25 61.55 201 61.2 201.225 60.75C201.5 60.125 200.95 60.425 200.625 60.575C200.225 60.775 199.75 61.05 199.325 61.25C200.2 60.625 201.075 60.05 202 59.475C202.25 59.3 202.5 59.1 202.75 58.9C203 58.675 203.3 58.475 203.6 58.3C204.075 58 205.55 57.275 205.5 56.475C205.15 56.625 204.825 56.825 204.55 57.075C204.55 56.925 204.95 56.675 205.025 56.6C205.375 56.2 205.6 55.825 205.975 55.5C206.35 55.175 206.725 54.875 207.075 54.525C207.3 54.325 207.55 54.125 207.775 53.9C207.875 53.825 207.975 53.75 208.05 53.65C208.125 53.55 208.05 53.525 208.05 53.425C208.425 52.925 208.8 52.425 209.225 51.95C209.3 51.875 209.6 51.55 209.175 51.575C208.95 51.675 208.775 51.8 208.625 52C208.9 51.575 209.25 51.2 209.65 50.9C209.725 50.825 210.225 50.5 210.25 50.325C210.275 50.15 210.225 50.325 210.15 50.3C210.35 49.925 210.375 49.7 209.875 49.775C210.225 49.375 210.65 49.05 210.95 48.575C211.1 48.325 211.125 47.95 211.3 47.65C211.75 46.925 211.875 46.475 211.175 47.3C211.125 47.375 210.6 47.775 210.55 47.7C210.5 47.625 210.825 47.325 210.8 47.3C210.55 47.1 210.6 47.1 210.375 47.325C209.925 47.8 209.425 48.275 208.925 48.75C207.15 50.375 205.4 52.05 203.6 53.65C202.9 54.25 202.15 54.775 201.45 55.35C200.525 56.1 199.675 56.85 198.7 57.55C196.85 58.85 195.075 60.275 193.125 61.475C192.25 62.025 191.25 62.2 190.2 62.325C189.75 62.375 189.3 62.325 188.9 62.2C188.65 62.1 188.425 61.775 188.15 61.65C188.125 61.675 188.125 61.725 188.15 61.75C188.125 61.925 188.125 62.1 188.175 62.25C188.05 62.05 187.925 61.9 187.75 61.975C187.275 62.175 188.4 63.025 188.425 63.1C188.475 63.525 188 62.975 187.95 62.9C187.65 62.55 187.35 62.15 187.075 61.775C186.925 61.525 186.325 60.4 186.85 60.15C187.075 60.05 187.075 61.025 187.375 61.125C187.25 60.875 187.175 60.125 187.075 59.925C186.775 59.375 186.6 58.75 186.55 58.125C186.475 57.25 186.45 56.375 186.475 55.5C186.45 54.825 186.55 54.125 186.8 53.5C186.65 54.2 186.65 54.925 186.8 55.6C186.825 55.575 186.85 55.525 186.85 55.475C186.825 55.8 186.8 56.35 187.025 56.575C187.325 56.875 187.325 56.55 187.3 56.25C187.3 55.825 187.175 55.35 187.175 54.875C187.225 54.375 187.3 53.875 187.425 53.375C187.5 52.95 187.625 52.5 187.8 52.1C187.875 51.925 187.825 51.95 187.9 51.7C188.125 51.05 188.1 50.45 188.575 49.85C188.9 49.475 189.35 49.325 189.75 49.075C190.15 48.825 190.775 48.575 191.175 48.35C191.725 48.05 192.65 47.7 193.175 47.375C193.7 47.05 193.7 47.35 194.225 47.025C195.125 46.475 195.85 46.125 196.7 45.5C197.15 45.175 197.5 44.7 197.95 44.3C198.125 44.15 198.85 43.575 198.7 43.35C198.425 42.975 198.075 43.8 197.925 43.925C197.525 44.275 197.125 44.55 196.725 44.875C197.1 44.375 197.5 43.9 197.925 43.45C198.1 43.25 198.225 43.05 198.45 42.8C198.525 42.725 198.975 42.175 199.175 42.225C199.375 42.275 198.75 42.525 198.875 42.6C199.125 42.725 199.225 42.375 199.375 42.25C199.375 42.25 199.375 42.275 199.375 42.25C199.825 41.9 200.4 41.575 200.425 40.975C200.15 41.025 199.9 41.175 199.725 41.35C199.775 41.175 200 41.05 200.1 40.925C200.45 40.55 201.475 40.025 201.875 39.675C201.975 39.575 202.875 39.1 202.575 38.85C202.475 38.775 202.35 38.775 202.25 38.85C202.575 38.575 202.875 38.25 203.15 37.925C203.6 37.375 203.75 36.65 204.075 36C204.125 35.875 204.425 35.55 204.375 35.425C204.225 35.075 204.1 35.5 204 35.625C203.475 36.325 203.125 36.95 202.6 37.7C202 38.475 201.275 39.125 200.45 39.625C201.05 38.775 201.7 38 202.325 37.175C202.725 36.65 203.075 36.125 203.45 35.55C203.725 35.125 203.95 34.525 204.3 34.125C204.175 34.375 204.1 34.625 203.975 34.875C204.55 34.05 205 33.125 205.275 32.15C205.15 33 204.9 33.85 204.75 34.7C204.825 34.55 205 34.45 205.075 34.325C205.25 34.05 205.4 33.75 205.525 33.45C205.8 32.675 206 32.05 206.25 31.2C206.575 30.05 206.75 28.75 206.375 27.575C206.275 27.3 206.075 27.425 205.925 27.25C205.85 27.15 205.875 27 205.8 26.925C205.4 26.5 204.9 26.125 204.375 25.875C203.725 25.6 203.05 25.35 202.375 25.15C201.775 24.95 201.25 24.525 200.65 24.35C199.275 23.925 198 23.8 196.675 24.45C196.225 24.675 195.8 24.925 195.375 25.225L195.325 25.25C195.15 25.325 194.975 25.4 194.8 25.475C194.625 25.55 194.45 25.65 194.3 25.75C194.275 25.75 194.225 25.75 194.2 25.775C193.9 26.1 194.65 25.65 194.375 26.025C194.3 26.125 193.2 27.2 193.125 27.3C193.05 27.4 191.7 29.325 191.625 29.375C191.55 29.425 192.2 28.125 192.125 28.15C192.125 28.15 191.025 29.4 190.6 29.85C190.375 30.075 190.65 29.625 190.65 29.625L191.975 28.05C191.975 28.05 192.6 27.425 192.625 27.425C192.65 27.35 192.7 27.275 192.75 27.225C193.025 27 193.275 26.725 193.475 26.45C193.55 26.325 193.375 26.2 193.275 26.3C192.85 26.775 192.375 27.175 191.95 27.65L191.775 27.825C191.7 27.9 191.625 27.975 191.575 28.05C191.3 28.35 191.025 28.675 190.775 29C190.375 29.5 190.025 30.025 189.675 30.55C188.975 31.35 188.325 32.2 187.725 33.075C184.875 37.225 182.85 41.75 181.075 46.45C180.575 47.8 180.4 49.225 180.125 50.625C179.95 51.525 179.925 52.9 179.8 53.65C179.35 54.475 178.725 55.5 178.55 55.775C178.1 56.425 176.9 58.125 176.45 58.825C175.625 60.15 175.75 59.525 174.85 61C174.525 61.525 173.725 62.475 172.75 62.275C171.95 62.1 172.375 60.975 172.375 60.55C172.375 59.675 172.325 58.925 172.375 58.175C172.525 55.25 173.05 52.95 173.625 50.1C174.825 44.5 176.525 39.025 178.75 33.75C178.975 33.15 179.25 32.55 179.575 32C180.25 30.675 180.85 29.3 181.575 28.025C183.1 25.35 184.775 22.775 186.35 20.175C187.15 18.85 187.95 17.65 188.825 16.375C189.15 15.9 189.425 15.425 190 15.175C190.575 14.925 192.025 14.65 197.825 13.775C200.6 13.35 203.35 12.875 206.125 12.5C211.675 11.775 217.275 11.075 222.85 10.8C224.425 10.725 226.025 10.625 227.6 10.55C227.925 10.525 229.025 10.475 227.825 10.375C227.75 10.375 227.75 10.25 227.8 10.175C227.85 10.1 227.75 10.075 227.625 10.05C225.8 10.075 225.375 9.89999 225.325 9.69999C225.3 9.64999 226.325 9.675 226.5 9.65C227.95 9.575 229.55 9.6 229.775 9.6C230.05 9.6 230.325 9.625 230.6 9.675C230.775 9.7 231.3 9.75 231.475 9.8C231.65 9.85 231.7 9.94999 231.65 9.94999C231.025 9.94999 230.225 10.025 230.1 10.05C230.025 10.05 229.825 10.125 229.775 10.125C229.575 10.15 229.4 10.175 229.2 10.25C229.05 10.275 228.825 10.325 229 10.425L229.1 10.475L229.35 10.45C230.525 10.4 231.625 10.375 232.725 10.325C233.05 10.3 233.4 10.25 233.725 10.175C233.775 10.175 233.925 10.15 233.85 10.075C233.775 9.99999 233.575 10.025 233.5 10.025C233.125 10 233.8 9.82499 233.425 9.82499C233.15 9.77499 232.9 9.69999 232.65 9.575C232.3 9.47499 232.075 9.425 232.375 9.4C232.45 9.4 232.925 9.4 233.075 9.4C233.375 9.4 233.65 9.42499 233.95 9.45C234.55 9.49999 234.325 9.325 234.925 9.375L235.325 9.4C235.5 9.425 235.65 9.45 235.825 9.425C236.025 9.4 236.05 9.225 236.325 9.25C236.3 9.475 237.675 9.8 237.15 9.425ZM120.05 53.85C120.6 52.525 121.175 51.225 121.8 49.95C122.425 48.675 123.225 47.5 124 46.3C124.825 45.025 125.65 43.825 126.6 42.6C126.925 42.2 127.45 41.525 128 41.475C128.55 41.425 128.75 41.8 128.725 42.25C128.7 42.95 128.35 43.575 128.1 44.2C127.8 44.925 127.425 45.65 127.025 46.325C126.325 47.6 125.55 48.85 124.7 50.05C123.975 51.025 123.275 51.9 122.45 52.825C121.65 53.7 120.725 54.45 119.725 55.075C119.825 54.65 119.925 54.25 120.05 53.85ZM66.3498 39.225C66.6248 38.5 66.9498 37.775 67.2998 37.075C67.3498 36.975 67.7498 35.575 68.0998 36.05C68.1248 36.1 67.4748 37.025 67.3748 37.225C66.9748 38.125 66.6498 39.025 66.1248 39.85C66.2248 39.65 66.2748 39.425 66.3498 39.225ZM63.9248 35.075C64.0748 34.7 64.2748 34.35 64.5248 34.05C64.6248 33.925 64.7248 33.85 64.8748 33.8C64.9998 33.725 65.1998 33.775 65.3248 33.725C65.0498 34.1 64.7998 34.325 64.4998 34.7C64.3248 34.975 64.0998 35.25 63.8498 35.475C63.8248 35.5 63.8248 35.475 63.7998 35.475C63.8248 35.35 63.8748 35.2 63.9248 35.075ZM61.3248 47.35C61.9998 46.275 62.5748 45.125 63.1998 44.05C63.9248 42.775 64.6248 41.55 65.3498 40.3C65.0998 41 64.9998 41.7 64.6248 42.375C64.1498 43.2 63.6248 44 63.1498 44.825C62.8498 45.325 62.5498 45.8 62.1998 46.275C61.9998 46.525 61.8248 46.775 61.6748 47.025C61.5498 47.275 61.4248 47.85 61.1248 47.9C60.8248 47.95 61.2998 47.4 61.3248 47.35ZM52.9748 68.4C53.1998 67.45 53.4748 66.075 54.2248 65.25C53.9498 66.1 53.6748 66.9 53.3498 67.75C53.0998 68.325 52.8998 68.925 52.7748 69.55C52.8248 69.15 52.8748 68.775 52.9748 68.4ZM52.5998 73.4C52.5748 73.675 52.5748 73.95 52.5498 74.075C52.3748 74.875 52.1248 75.675 51.7998 76.425C51.9748 75.4 52.2248 74.4 52.5998 73.4ZM76.7248 69.275C76.5998 69.4 76.4498 69.525 76.3248 69.65C76.4748 69.45 76.6498 69.275 76.8748 69.125C76.7998 69.175 76.7498 69.225 76.7248 69.275ZM127.425 62.75C126.85 63.55 126.25 64.35 125.6 65.1C125.1 65.725 124.525 66.475 123.85 66.95C124.55 66 125.25 65.075 126 64.15C126.325 63.725 126.65 63.325 127 62.9C127.05 62.825 127.1 62.725 127.175 62.675C127.25 62.625 127.55 62.55 127.425 62.75ZM130.825 58.825C130.75 59.2 130.4 60.175 129.9 59.7C129.6 59.45 130.55 58.5 130.875 58.425C130.875 58.575 130.85 58.7 130.825 58.825ZM134.375 55.375C135.025 54.075 135.675 52.775 136.4 51.5C136.725 50.9 137.1 50.35 137.5 49.775C137.725 49.45 137.95 48.9 138.325 48.75C138.425 48.7 138.175 49.3 138.15 49.35C137.9 49.775 137.65 50.175 137.4 50.6C136.825 51.5 136.225 52.325 135.725 53.275C135.3 53.975 134.975 54.8 134.375 55.375ZM204 55.95C204.325 55.75 204.725 55.575 204.95 55.225C204.85 55.55 204.65 55.85 204.375 56.05C204.25 56.2 204.075 56.3 203.9 56.35C203.85 56.35 203.725 56.3 203.675 56.3C203.8 56.175 203.825 56.05 204 55.95ZM189.475 62.85C190.275 62.825 191.075 62.725 191.85 62.55C191.025 62.9 190.125 63 189.225 62.85C189.325 62.85 189.4 62.85 189.475 62.85ZM189.875 44.35C190.675 41.75 192.775 38.275 194.175 35.975C195.375 34 196.975 32.425 198.4 30.65C198.825 30.125 199.375 29.2 200.1 29.525C201.375 30.1 200.55 31.525 200.15 32.325C198.975 34.625 197.575 36.8 195.975 38.825C195.525 39.4 195.125 40 194.675 40.55C194.025 41.375 193.325 42.125 192.575 42.85C192.1 43.225 191.4 43.85 190.925 44.25C190.85 44.3 189.925 45 189.725 44.95C189.625 44.95 189.825 44.475 189.875 44.35Z" fill="#E7F3E2"/>
<path d="M169.35 11.7752C169.975 11.8252 170.6 11.8252 171.225 11.7752C171.5 11.7502 171.8 11.7002 172.05 11.6252C172.175 11.5752 172.35 11.4752 172.5 11.4502C171.375 11.3752 170.225 11.3002 169.175 11.7252C168.8 11.9002 169.325 11.7752 169.35 11.7752Z" fill="#E7F3E2"/>
<path d="M165.2 12.7749C165.3 12.8999 165.15 12.9749 165.3 13.0999C165.375 13.1499 165.875 12.9499 165.925 12.9499C166.4 12.7749 166.875 12.6499 167.35 12.5499C167.575 12.4999 168.725 12.4499 167.775 12.1249C167.175 11.9249 165.65 12.3499 165.1 12.7249C164.65 12.9749 165.075 12.7999 165.2 12.7749Z" fill="#E7F3E2"/>
<path d="M50.8244 58.7253C51.1744 57.9253 51.3744 57.2003 51.6994 56.3503C51.7244 56.2753 52.2494 54.9753 51.8494 55.0753C51.2494 55.2503 51.1244 56.2503 50.9494 56.7253C50.5744 57.7003 50.2494 58.5253 49.8994 59.4753C49.9994 59.4003 50.1494 59.3503 50.2494 59.2753C50.4994 59.1253 50.6994 58.9503 50.8244 58.7253Z" fill="#E7F3E2"/>
<path d="M65.9999 79.45C65.0249 80.4 64.0249 81.225 63.0749 82.15C62.1999 83.025 61.3749 83.9 60.4749 84.775C59.5749 85.65 58.7749 86.65 57.9249 87.575C57.7249 87.775 57.2499 88 57.1749 88.275C57.0249 88.65 57.3499 88.35 57.4999 88.225C58.2249 87.6 58.9999 86.975 59.7249 86.3C60.5749 85.525 61.3749 84.675 62.0749 83.75C62.6499 83.025 63.2999 82.325 63.9749 81.7C64.6749 81.05 65.4999 80.475 66.1999 79.775C66.8249 79.175 67.3499 78.5 67.9499 77.85C67.9749 77.825 68.2249 77.625 68.0249 77.625C67.8249 77.625 67.3499 78.025 67.2499 78.125C66.7749 78.55 66.4249 79.025 65.9999 79.45Z" fill="#E7F3E2"/>
<path d="M117.125 77.2001C117.15 77.2001 117.125 77.1751 117.125 77.2001V77.2001Z" fill="#E7F3E2"/>
<path d="M44.7496 80.1751C44.7246 80.5001 44.7496 80.8501 44.8246 81.1751C44.8496 80.8001 45.1246 80.3251 45.2246 80.0001C45.3996 79.5251 45.5496 79.0501 45.6746 78.5751C45.9246 77.6751 46.1246 76.7751 46.2746 75.8501C46.1496 76.0251 46.0496 75.9751 45.9496 76.2251C45.8246 76.5251 45.7496 76.8501 45.6746 77.1751C45.5746 77.7751 45.3996 78.3751 45.1746 78.9501C44.9496 79.3251 44.8246 79.7501 44.7496 80.1751Z" fill="#E7F3E2"/>
<path d="M44.3251 78.0999C45.0751 78.4999 45.1501 77.1249 45.2501 76.5249C45.3001 76.2249 45.6251 75.1499 45.6501 74.8249C45.6751 74.4999 45.6001 75.1999 45.5001 75.1249C45.3001 74.9999 45.5251 74.5249 45.5251 74.4249C45.5751 74.0749 45.4501 73.9499 45.4001 73.6499C45.0501 74.7499 44.7251 75.8249 44.4501 76.9249C44.4751 76.7499 44.5251 76.5499 44.5251 76.3749C44.3751 76.7499 43.8001 77.8249 44.3251 78.0999Z" fill="#E7F3E2"/>
<path d="M46.4749 67.5248C47.0499 66.8248 47.2999 65.8998 47.6249 65.0498C47.7749 64.5248 47.9499 64.0248 48.1499 63.5248C48.1749 63.4748 48.8999 62.6248 48.4749 62.5248C48.1499 62.4498 47.9499 63.0248 47.8499 63.2248C47.6999 63.5248 47.6249 63.7748 47.4999 64.0498C47.3499 64.2998 47.1999 64.5498 47.0999 64.8248C47.0249 65.1248 47.0749 65.4498 46.9999 65.7248C46.9499 65.8998 46.8749 65.8748 46.7999 66.0248C46.5999 66.3248 46.4499 66.6498 46.3249 66.9998C46.3249 67.0498 46.2749 67.7998 46.4749 67.5248Z" fill="#E7F3E2"/>
<path d="M52.5995 52.1502C53.0245 51.7752 53.3245 50.9502 53.6245 50.4002C53.9245 49.8502 54.2245 49.3252 54.1995 48.7002C54.0745 48.8252 53.7745 49.1002 53.6995 49.2252C53.4745 49.6002 53.2995 49.9752 53.1745 50.3752C52.9745 50.7502 52.7745 51.1252 52.6245 51.5252C52.5745 51.6002 52.1995 52.5002 52.5995 52.1502Z" fill="#E7F3E2"/>
<path d="M56.5248 61.975C56.0248 63.025 55.5748 64.025 55.1248 65.1C54.9748 65.45 54.5498 66.1 54.7498 66.475C54.9998 66.975 55.0748 66.35 55.1998 66.125C55.4748 65.625 55.8998 65.25 56.0998 64.7C56.2998 64.15 56.2748 63.55 56.5248 62.9C56.5498 62.825 56.9498 62.05 56.8998 61.925C56.6998 61.525 56.7498 62 56.5248 61.975Z" fill="#E7F3E2"/>
<path d="M229.175 7.02492C229.975 7.17492 232.225 7.17492 232.75 7.22492C233.925 7.32492 234.125 7.32492 235 7.37492C235.35 7.39992 235.85 7.54992 235.625 6.99992C235.55 6.77492 234.875 6.89992 234.575 6.87492C233.15 6.82492 230.875 6.82492 229.625 6.84992C228.875 6.87492 228.725 6.94992 229.175 7.02492Z" fill="#E7F3E2"/>
<path d="M89.6247 99.75H85.5747V97H97.8997V99.75H93.7997V108.6H89.6247V99.75Z" fill="#E7F3E2"/>
<path d="M101.6 97H106.975L111.975 108.625H107.55L106.775 106.65H101.25L100.45 108.625H96.5747L101.6 97ZM102.275 104.125H105.75L104.025 99.8L102.275 104.125Z" fill="#E7F3E2"/>
<path d="M114.724 99.75H110.649V97H122.999V99.75H118.899V108.6H114.724V99.75Z" fill="#E7F3E2"/>
<path d="M127.874 99.75H123.824V97H136.149V99.75H132.049V108.6H127.874V99.75Z" fill="#E7F3E2"/>
<path d="M136.625 102.875V102.75C136.625 99.2002 140.05 96.8252 144.75 96.8252C149.55 96.8252 152.9 99.0002 152.9 102.65V102.775C152.9 106.375 149.775 108.825 144.7 108.825C139.625 108.825 136.625 106.375 136.625 102.875ZM148.575 102.85V102.725C148.575 100.8 147.125 99.6252 144.75 99.6252C142.375 99.6252 140.975 100.75 140.975 102.75V102.875C140.975 104.85 142.45 106.05 144.8 106.05C147.15 106.05 148.575 104.8 148.575 102.85Z" fill="#E7F3E2"/>
<path d="M153.875 102.875V102.75C153.875 99.2002 157.3 96.8252 162 96.8252C166.8 96.8252 170.15 99.0002 170.15 102.65V102.775C170.15 106.375 167.025 108.825 161.95 108.825C156.875 108.825 153.875 106.375 153.875 102.875ZM165.825 102.85V102.725C165.825 100.8 164.375 99.6252 162 99.6252C159.625 99.6252 158.2 100.75 158.2 102.75V102.875C158.2 104.85 159.675 106.05 162.025 106.05C164.375 106.05 165.825 104.8 165.825 102.85Z" fill="#E7F3E2"/>
<path d="M171 104.95H175.05C175.2 105.7 175.825 106.275 177.75 106.275C179.225 106.275 180.05 105.925 180.05 105.275C180.05 104.625 179.3 104.425 177.275 104.25C172.975 103.9 171.425 102.9 171.425 100.575C171.425 98.3751 173.65 96.8501 177.45 96.8501C181.2 96.8501 183.375 97.9501 183.65 100.5H179.7C179.525 99.7751 178.775 99.4251 177.45 99.4251C176.075 99.4251 175.425 99.7251 175.425 100.3C175.425 100.875 175.975 101.05 178.075 101.25C181.925 101.55 184.125 102.3 184.125 104.925C184.125 107.275 181.925 108.875 177.8 108.875C173.45 108.825 171.15 107.525 171 104.95Z" fill="#E7F3E2"/>
<path d="M113.475 123.525C112.45 124.2 111.35 124.55 109.475 124.55C106.225 124.55 104 123.325 104 121.125C104 119.625 105.15 118.425 107.275 117.85C106.7 117.325 106.375 116.6 106.375 115.825C106.375 113.725 108.575 112.6 111.325 112.6C113.775 112.6 115.8 113.55 115.8 115.4C115.8 116.55 114.825 117.725 112.625 118.35L114.45 120L115.825 118.325H119.175L116.45 121.825L119.25 124.375H114.4L113.475 123.525ZM109.975 122.1C110.5 122.1 111.05 121.975 111.525 121.75L109.075 119.5C108.35 119.8 107.95 120.225 107.95 120.85C107.925 121.525 108.6 122.1 109.975 122.1ZM110.95 117.05C112.075 116.675 112.525 116.175 112.525 115.7C112.525 115.225 112.075 114.8 111.3 114.8C110.525 114.8 109.975 115.15 109.975 115.75C109.95 116.2 110.25 116.625 110.95 117.05Z" fill="#E7F3E2"/>
<path d="M128.8 112.75H134.175L139.175 124.375H134.75L133.975 122.4H128.45L127.65 124.375H123.75L128.8 112.75ZM129.475 119.875H132.95L131.25 115.55L129.475 119.875Z" fill="#E7F3E2"/>
<path d="M140.275 112.75H146.925C150.625 112.75 152.575 114.025 152.575 116.525V116.6C152.575 118.4 151.575 119.225 150.15 119.825L153.525 124.4H148.975L146.3 120.85H144.4V124.4H140.25V112.75H140.275ZM146.6 118.25C147.8 118.25 148.475 117.8 148.475 116.85V116.775C148.475 115.775 147.75 115.4 146.65 115.4H144.425V118.25H146.6Z" fill="#E7F3E2"/>
<path d="M157.749 115.5H153.699V112.75H166.024V115.5H161.924V124.35H157.749V115.5Z" fill="#E7F3E2"/>
</g>
<defs>
<clipPath id="clip0_1430:31972">
<rect width="270" height="128" fill="white"/>
</clipPath>
</defs>
</svg>
