<svg width="528" height="74" fill="none" xmlns="http://www.w3.org/2000/svg"><path d="M0 17.774v-.375C0 6.872 9.89 0 22.87 0 34.74 0 42.65 4.123 43.764 13.338H31.277c-.556-3.248-3.214-5.06-8.376-5.06-6.243 0-10.199 3.31-10.199 9.09v.375c0 5.778 3.771 9.09 10.416 9.09 5.1 0 8.499-1.625 9.21-5.155h11.96c-.958 8.934-9.179 13.62-20.985 13.62C7.85 35.266 0 28.269 0 17.774zm47.565 0v-.375C47.565 6.935 57.485 0 71.208 0c13.938 0 23.674 6.404 23.674 17.118v.375c0 10.558-9.118 17.773-23.829 17.773-14.773 0-23.488-7.215-23.488-17.492zm34.769-.094v-.375c0-5.685-4.265-9.121-11.126-9.121s-11.003 3.342-11.003 9.184v.375c0 5.84 4.296 9.308 11.126 9.308 6.83 0 11.003-3.623 11.003-9.371zM98.93.469h12.084V26.52h17.462v8.122H98.931V.469zm30.349 17.305v-.375C129.28 6.935 139.201 0 152.923 0c13.939 0 23.705 6.404 23.705 17.118v.375c0 10.558-9.117 17.773-23.828 17.773-14.835 0-23.52-7.215-23.52-17.492zm34.77-.094v-.375c0-5.685-4.265-9.121-11.127-9.121-6.861 0-11.033 3.342-11.033 9.184v.375c0 5.84 4.296 9.308 11.126 9.308 6.8 0 11.034-3.623 11.034-9.371zM180.646.469h19.316c10.787 0 16.442 3.78 16.442 11.089v.187c0 5.31-2.874 7.747-7.046 9.465l9.828 13.432h-13.197l-7.757-10.433h-5.563v10.433h-12.054l.031-34.173zm18.42 16.15c3.462 0 5.44-1.281 5.44-4.124v-.188c0-2.905-2.071-4.029-5.347-4.029h-6.49v8.309l6.397.031zm43.423-12.714h-5.007V.469h15.237v3.436h-5.068v11.058h-5.162V3.905zm10.818 3.904v-.156c0-4.435 4.234-7.403 10.044-7.403 5.934 0 10.076 2.718 10.076 7.278v.156c0 4.498-3.864 7.56-10.138 7.56s-9.982-3.062-9.982-7.435zm14.773-.03v-.157c0-2.405-1.793-3.873-4.729-3.873s-4.667 1.436-4.667 3.904v.156c0 2.468 1.824 3.967 4.729 3.967 2.905 0 4.667-1.562 4.667-3.998zm-33.596 15.805h-5.006v-3.436h15.236v3.436h-5.068v11.058h-5.162V23.584zm12.116-3.436h5.13v5.435h6.738v-5.435h5.161v14.525h-5.131V29.05h-6.737v5.623h-5.13V20.148h-.031zm20.089 0h14.062v3.342h-8.962v2.218h7.695v3.249h-7.695v2.342h9.364v3.343h-14.495V20.148h.031zm27.63-19.68h18.297c11.713 0 16.967 4.155 16.967 11.808v.188c0 7.559-5.81 12.182-16.411 12.182h-6.799v9.996h-12.054V.469zm17.771 16.837c3.74 0 5.78-1.53 5.78-4.498v-.187c0-2.968-2.071-4.31-5.718-4.31h-5.779v8.995h5.717zM333.786.47h33.101V8.34h-21.078v5.217h18.111v7.653h-18.111v5.529h22.067v7.872h-34.09V.469zm36.006 17.305v-.375C369.792 6.935 379.713 0 393.435 0c13.939 0 23.705 6.404 23.705 17.118v.375c0 10.558-9.117 17.773-23.828 17.773-14.835 0-23.52-7.215-23.52-17.492zm34.738-.094v-.375c0-5.685-4.265-9.121-11.126-9.121s-11.033 3.342-11.033 9.184v.375c0 5.84 4.296 9.308 11.126 9.308 6.83 0 11.033-3.623 11.033-9.371zM421.127.469h18.296c11.714 0 16.968 4.154 16.968 11.807v.188c0 7.559-5.811 12.182-16.411 12.182h-6.8v9.996h-12.053V.469zm17.802 16.836c3.739 0 5.779-1.53 5.779-4.498v-.187c0-2.968-2.07-4.31-5.717-4.31h-5.78v8.995h5.718zM460.625.47h12.115V26.52h17.462v8.122h-29.546V.469h-.031zm33.285 0h33.1V8.34h-21.077v5.217h18.111v7.653h-18.111v5.529H528v7.872h-34.09V.469z" fill="#E7F3E2"/><path d="M129.435 54.32h-2.256V74h2.256V54.32zm2.225 0h-1.113V74h1.113V54.32zm3.369 0h-1.113V74h1.113V54.32zm5.593 0h-1.112V74h1.112V54.32zm4.513 0h-1.113V74h1.113V54.32zm5.625 0h-2.256V74h2.256V54.32zm2.225 0h-1.113V74h1.113V54.32zm6.737 0h-3.368V74h3.368V54.32zm3.369 0h-2.256V74h2.256V54.32zm2.226 0h-1.113V74h1.113V54.32zm5.594 0h-2.225V74h2.225V54.32zm4.512 0h-3.368V74h3.368V54.32zm2.225 0h-1.113V74h1.113V54.32z" fill="#E93644"/><path d="M184.385 54.32h-3.368V74h3.368V54.32zm3.369 0h-2.256V74h2.256V54.32zm3.369 0h-2.256V74h2.256V54.32zm4.451 0h-1.113V74h1.113V54.32zm4.513 0h-3.369V74h3.369V54.32zm3.337 0h-2.225V74h2.225V54.32zm3.369 0h-2.226V74h2.226V54.32zm4.512 0h-2.256V74h2.256V54.32zm4.481 0h-2.256V74h2.256V54.32zm4.482 0h-3.369V74h3.369V54.32zm4.481 0h-1.112V74h1.112V54.32zm2.226 0h-1.113V74h1.113V54.32z" fill="#B4E3A0"/><path d="M233.743 54.32h-3.369V74h3.369V54.32zm3.369 0h-2.257V74h2.257V54.32zm3.369 0h-2.256V74h2.256V54.32zm3.338 0h-2.257V74h2.257V54.32zm4.48 0h-2.225V74h2.225V54.32zm4.482 0h-2.225V74h2.225V54.32zm4.513 0h-3.369V74h3.369V54.32zm4.45 0h-1.112V74h1.112V54.32zm3.4 0h-2.256V74h2.256V54.32zm4.45 0h-1.113V74h1.113V54.32zm2.256 0h-1.113V74h1.113V54.32zm4.481 0h-1.112V74h1.112V54.32zm5.625 0H279.7V74h2.256V54.32zm2.226 0h-1.113V74h1.113V54.32z" fill="#129B84"/><path d="M289.807 54.32h-2.256V74h2.256V54.32zm3.368 0h-2.256V74h2.256V54.32zm4.482 0H295.4V74h2.257V54.32zm5.594 0h-3.369V74h3.369V54.32zm4.481 0h-3.369V74h3.369V54.32zm3.4 0h-2.256V74h2.256V54.32zm2.195 0h-1.113V74h1.113V54.32zm5.655 0h-2.256V74h2.256V54.32zm2.194 0h-1.113V74h1.113V54.32zm4.513 0h-1.113V74h1.113V54.32zm6.737 0h-3.368V74h3.368V54.32zm3.369 0h-2.256V74h2.256V54.32zm4.481 0h-3.369V74h3.369V54.32zm4.481 0h-3.368V74h3.368V54.32zm3.338 0h-2.225V74h2.225V54.32zm2.257 0h-1.113V74h1.113V54.32z" fill="#0F6D8A"/><path d="M355.946 54.32h-2.225V74h2.225V54.32zm4.512 0h-3.369V74h3.369V54.32zm2.225 0h-1.113V74h1.113V54.32zm5.625 0h-2.256V74h2.256V54.32zm2.226 0h-1.113V74h1.113V54.32zm6.737 0h-3.369V74h3.369V54.32zm3.338 0h-2.225V74h2.225V54.32zm3.369 0h-1.113V74h1.113V54.32zm4.512 0h-2.257V74h2.257V54.32zm6.737 0h-3.369V74h3.369V54.32zm2.225 0h-1.112V74h1.112V54.32zm3.339 0h-2.226V74h2.226V54.32z" fill="#674587"/></svg>