<svg width="20" height="20" id="Layer_1" xmlns="http://www.w3.org/2000/svg" viewBox="0 0 20 20"><style>.st0{fill-rule:evenodd;clip-rule:evenodd;fill:#e7f3e2}</style><path class="st0" d="M14.4 2H5.6C3.6 2 2 3.6 2 5.6v8.7c0 2 1.6 3.6 3.6 3.6h8.7c2 0 3.6-1.6 3.6-3.6V5.6c.1-2-1.5-3.6-3.5-3.6zM5.5 1C3 1 1 3 1 5.5v9C1 17 3 19 5.5 19h9c2.5 0 4.5-2 4.5-4.5v-9C19 3 17 1 14.5 1h-9z"/><path class="st0" d="M5.5 10c0-2.5 2-4.5 4.5-4.5s4.5 2 4.5 4.5-2 4.5-4.5 4.5-4.5-2-4.5-4.5zM10 6.5c-1.9 0-3.5 1.6-3.5 3.5s1.6 3.5 3.5 3.5 3.5-1.6 3.5-3.5-1.6-3.5-3.5-3.5zM16 5c0 .7-.6 1.2-1.2 1.2s-1.3-.5-1.3-1.2.6-1.2 1.2-1.2S16 4.3 16 5z"/></svg>