<svg width="20" height="20" fill="none" xmlns="http://www.w3.org/2000/svg"><path fill-rule="evenodd" clip-rule="evenodd" d="M9.216 2.386c-.545.545-.829 1.386-.829 2.591V7.34H6.5v2.009h1.887V18.5h2.671V9.348h2.718l.17-2.01h-2.888V5.387c0-.206.005-.425.037-.629.032-.207.098-.431.243-.633.31-.43.836-.564 1.47-.564.332 0 .79.04 1.217.101l.304-1.91C13.56 1.6 12.92 1.5 12.094 1.5c-1.434 0-2.333.34-2.878.886zm-.707-.707C9.314.873 10.519.5 12.094.5c1.1 0 1.91.163 2.905.367l.468.096-.615 3.868-.51-.103a9.178 9.178 0 0 0-1.534-.168c-.54 0-.639.121-.66.15a.47.47 0 0 0-.065.202 3.2 3.2 0 0 0-.025.474v.953h2.977l-.34 4.009h-2.637V19.5H7.387v-9.152H5.5v-4.01h1.887v-1.36c0-1.345.316-2.493 1.122-3.299z" fill="#E7F3E2"/></svg>