<svg width="85" height="44" fill="none" xmlns="http://www.w3.org/2000/svg"><path d="M83.986 4.406c-.227-.169-.302-.146-.572-.146-.032 0-1.273-.023-1.413-.169-.097-.101 1.402-.045 1.456-.067.097-.023-.787-.057-.712-.124.032-.022 1.025-.101 1.09-.09.043-.022.161-.011-.076-.101-.13-.045-.798 0-.927 0-.367-.011-.464.022-.799-.023-.28-.033-.56-.09-.841-.112-.27-.011-.529.079-.787.068-.206-.012-.4-.023-.605-.045l-.593-.068c-.021 0-.043 0-.065-.011-.021 0-.053-.023-.053-.023h.021c.065 0 .119 0 .183-.01.065-.012.097-.09.162-.09 1.338-.192-.215-.17-.442-.17-.56 0-1.09.046-1.629.102.011-.023-.097.067-.108.034-.054-.158-.68-.102-.852-.102-.334 0-.528-.056-.809-.033-.086.01-.733.078-.625.112.388.124.873.09 1.348.079-.572.056-1.165.112-1.726.157-.367.034-.733.056-1.079.079-.162.011-.28.011-.42-.023-.087-.022-.14-.078-.216-.1.108-.012.323.022.41-.035.259-.157-.011-.18-.184-.168a32.62 32.62 0 0 0-1.769.19c.087 0 .205.023.292.023l.658.034c-.389.169-.777.236-1.198.259h.087a.762.762 0 0 1-.356 0c-.076-.023-.076-.135-.162-.135-.248 0-.367.033-.615.146-.464.225-.96.438-1.456.168-.043-.022.841-.18.367-.146-.464.034-1.349.214-1.856.337-.183.045-.474.124-.366.18.097.045.711-.135.809-.146.29 0 .496-.292.733-.045.183.203-.669.259-.744.281-.378.068-.95.113-1.316.146-.378.034-.54.124-.906.18-.033 0-.076-.011-.108-.011-.033 0-.162.022-.27.022.01-.01.032-.01.043-.022.022-.011.022-.034.022-.045.162-.034.367-.068.41-.09.021-.011.021-.034.021-.056l.367-.068h.01c.055 0 .098-.01.152-.01.032 0 .043-.023.043-.046.032-.022.032-.078-.01-.09-.055-.011-.098.012-.152.012-.075.01-.14.022-.216.022-.021 0-.032.011-.032.022-.13 0-.259.023-.367.045-.13.023-.258.045-.388.08-.043 0-.097.01-.14.01.302-.573.593-1.079 1.003-1.674.291-.416.766-.933.464-1.517-.065-.135-.248-.09-.345-.18-.076-.068-.151-.146-.238-.191-.086-.045-.215-.012-.29-.057-.12-.067-.087-.157-.184-.258-.151-.169-.324-.304-.583-.292-.086 0-.15.022-.248.1-.065.046-.205.237-.302.282.065-.157.162-.292.248-.45-.097-.09-.237-.213-.356-.247-.118-.034-.205-.034-.313-.034-.032 0-.215.225-.356.382-.075.09-.431.753-.14.147 0-.012.054-.169.151-.315.087-.146.216-.281.205-.281-.021-.011-.054.011-.13.067-.183.146-.377.529-.495.753-.238.416-.497.843-.712 1.237-.14.258-.292.494-.41.708-.151.258-.227.483-.367.708-.14.224-.28.404-.42.618-.044.056-.227.393-.206.404.14.08.335-.45.313-.224-.01.067-.205.393-.259.45-.032.022-.054.055-.075.078-.227-.011-.475.101-.583.112-.172 0-.215-.033-.367 0-.053.011-.075.079-.14.09-.064.011-.162.011-.237.045.01 0-.075.09 0 .101.205.045.431-.022.636-.045.076-.01.195-.09.26-.078h.237c-.022.146-.162.112-.28.146-.26.067-.562.078-.842.112-.227.034-.453.079-.69.09-.195.011-.389-.022-.594 0-.237.023-.399.112-.647.157-.324.057-.604.023-.992.068-.108.011-.356.034-.572.045-.108 0-.194.011-.27.022.076.034.41.113.604.146-.356 0-.733 0-1.09.023a5.004 5.004 0 0 0-1.089.157c-.313.09-.625.214-.96.281-.28.056-.571.079-.852.124-.032-.068-.13-.079-.194-.068-.237.045-.485.158-.69.236a5.767 5.767 0 0 1-1.284.304c-.119.011-.227.011-.334.034-.065.01-.162.09-.216.067-.162-.09-.086-.135.119-.18.205-.045.733-.09.895-.303.162-.214-.302.112-.27-.056.022-.08.378-.113.453-.124.389-.056.69-.191 1.057-.315-.507.09-.82.214-1.402.27-.14.011-.917-.056-1.046.236-.043.09.216-.011.118.09-.237.225-.7.168-.97.19-.378.023-.594.09-.928.102.108-.034.194-.101.291-.169-.367.057-.755.113-1.11.158 0 0 .236-.023.129.056-.108.079-.27.101-.4.124.432.01.853-.057 1.295-.124.097-.011.431-.045.474-.056.173-.023-.097.078-.01.09-.518.123-1.003.236-1.521.37-.335.09-.68.192-1.036.203-.194 0-.323-.157-.55-.135-.259.034-.388.079-.712.247-.118.056-.69.416-.927.349-.12-.034.053-.012.043-.057-.033-.112-.27-.033-.313-.022-.248.056-.42.112-.658.191a2.728 2.728 0 0 1-.734.135.742.742 0 0 0 .27-.157c.01-.012.108-.08.13-.09.053-.057.172-.034.064-.124-.054-.045-.161.023-.259.023-.302 0-.809.01-1.035.202-.227.19.162.079-.065.202-.14.079-.313.045-.464.09.033-.045.087-.056.119-.101.032-.034.021-.079.043-.124-1.176.27-2.395.45-3.57.675h-.011c.086.01.172.022.27.01.075-.01.161-.022.237-.044.075-.023.108.101.032.124-.054.022-.118.033-.172.044a4.288 4.288 0 0 1-.529.08c-.237.022-.485-.023-.723-.035-.981.203-1.952.405-2.934.585-.55.101-1.1.168-1.64.303-.269.068-.55.191-.787.326s-.215.248-.172.495c.01.045.194.033.194.078.01.113-.151.281-.13.405.022.112.249.034.27.146.011.079-.13.18-.162.304-.032.123.033.258.065.337.086.27.4.63.475.955.021.068-.173.079-.108.202.043.079.097.135.162.124.032 0 0-.034.043-.034.054 0 .13.09.172.113.044.033.076.01.098.045.021.033.01.1.043.1.107.012.14-.022.248-.056 2.135-.764 4.465-1.146 6.677-1.663 2.319-.54 4.638-1.067 6.968-1.573 4.369-.967 8.813-2.057 13.246-2.551-.151.303-.313.595-.485.899-.205.382-.389.741-.637 1.124-.065.1-.302.651-.291.708.065.28.14-.113.172-.158.13-.18.292-.37.41-.55.087-.135.173-.326.248-.439.087-.112.14-.146.152 0 .01.113-.087.225-.14.326-.087.169-.163.337-.238.506-.205.416-.442.81-.658 1.225-.108.202-.162.416-.248.64-.043.113-.076.484-.27.416-.064-.022.097-.404.151-.472.054-.067.356-.708.033-.45-.421.35-.68 1.552-.83 1.945-.195.54-.303.708-.454 1.09-.01.011-.01.023-.01.045 0-.011-.012.023-.055.113-.377.854-.744 1.663-1.121 2.495-.173.382-.335.764-.508 1.146-.14.315-.29.596-.442.9a374.919 374.919 0 0 1-2.276 4.708c-.205.427-.377.866-.582 1.304-.205.438-.41.831-.637 1.27-.442.854-.895 1.562-1.391 2.472-.14.259-.637 1.585-1.187 1.057-.29-.281-.043-.787.022-1.146.086-.461.194-.933.334-1.383.291-.899.658-1.764 1.068-2.607.184-.371.442-.686.637-1.034a13.6 13.6 0 0 0 .571-1.124c.14-.315.205-.472-.097-.697-.097-.079-.248-.169-.377-.157-.227.01-.227-.158-.313-.248-.043-.044-.119-.056-.173-.09-.021-.01-.172.124-.194.113-.032-.011.043-.113.032-.157-.01-.045-.064-.09-.097-.113-.194-.112-.183-.157-.29-.19-.087-.035-.206-.012-.303-.012-.388 0-.572.292-.798.562-.583.708-1.154 1.393-1.726 2.102a30.61 30.61 0 0 1-1.726 2.034c-.377.393-.723.764-1.09 1.18-.366.416-.744.764-1.132 1.202-.216.236-.507.652-.895.641-.151-.011-.14-.09-.119-.247.032-.203.076-.439.162-.652.334-.832.68-1.664 1.111-2.462.496-.91 1.025-1.809 1.65-2.63.529-.696 1.133-1.303 1.715-1.955.507-.562 1.025-1.146 1.597-1.64.604-.518 1.251-.821 1.995-1.046.27-.079.561-.023.842-.124.086-.033.14-.022.215-.09.011-.01.108-.067.12-.1.01-.046-.087-.147-.076-.158.021-.034.13.067.15.034.033-.068.022-.135.022-.225 0-.034.054-.034.054-.067-.043-.18-.237-.315-.377-.428a4.567 4.567 0 0 0-.389-.303c-.194-.135-.377-.225-.582-.337-.291-.157-.561-.393-.885-.495-.388-.123-.841-.213-1.24-.123-.712.18-1.284.494-1.866.921-.626.45-1.176.967-1.715 1.529-.615.652-1.176 1.337-1.79 2.045-.077.09-.583.483-.357.663.097.068.216-.236.28-.303.152-.18.346-.36.508-.528-.486.663-1.025 1.303-1.489 1.989 0 0 .032-.011.054-.023-.086.146-.14.315-.108.338.259.134.28-.371.475-.394.01 0-.14.326-.162.36a6.73 6.73 0 0 0-.28.54c-.195.404-.4.764-.626 1.134-.119.191-.26.371-.345.596-.065.18-.087.36-.14.54-.173.494-.346 1-.486 1.506-.097.325-.151.663-.248.989.043-.338.065-.664.15-1 .066-.282.163-.563.163-.855-.076.203-.216.371-.313.562-.022-.416.183-.854.345-1.191.075-.18.345-.517.086-.528-.01 0-.431.887-.464 1.022-.043-.157.011-.37.065-.54.043-.134.13-.269.162-.404-.032.056-.097.09-.14.135-.065.079-.097.18-.14.259-.12.213-.184.494-.302.685-.108.191-.205.281-.335.472-.13.18-.313.349-.464.54-.68.876-1.391 1.73-2.092 2.596-.69.865-1.306 1.798-2.082 2.585-.334.337-.766.652-1.24.472-.518-.191-.615-.64-.605-1.169.033-1.146.313-2.248.658-3.35.054-.168.119-.37.238-.516.118-.146.29-.225.453-.315.41-.236.83-.45 1.25-.663.465-.247.918-.494 1.295-.877.335-.348.712-.64 1.047-.989.194-.213.29-.494.453-.73.075-.101.14-.214.226-.315.13-.157.302-.292.42-.45.217-.27.443-.539.637-.831.302-.472.637-.955.863-1.472.248-.551.28-1.034.238-1.63-.022-.247-.097-.528-.151-.775-.022-.113-.087-.203-.152-.293-.064-.09-.215-.19-.032-.202-.453-.236-.863-.528-1.327-.73-.161-.068-.323-.08-.496-.158-.172-.079-.356-.258-.56-.27-.54-.022-1.025 0-1.49.315-.528.349-.916.854-1.326 1.338-.378.438-.712.932-1.046 1.393-.367.495-.69 1.023-1.014 1.551-.173.281-.335.573-.507.866-.065.1-.13.213-.173.325-.043.113-.021.248-.075.349-.108.19-.302.303-.421.494-.14.214-.205.484-.302.72a4.4 4.4 0 0 1 .313-.326c-.173.27-.302.54-.4.843.184-.259.313-.427.454-.765.054-.134.14-.528.334-.584.043-.011-.119.315.022.09.172-.281.787-1.315 1.003-1.618.118-.17-.033.18-.108.303.097-.034-.712 1.281-.766 1.45-.13.258-.216.528-.356.787-.032.067-.172.18-.14.27.054.134.15-.023.173-.068.172-.292.312-.55.474-.843.032-.056.108-.236.183-.09.033.079-.086.202-.118.258-.14.236-.238.484-.367.709-.13.224-.323.382-.464.606-.162.27-.248.596-.41.877-.064.112-.183.191-.248.303-.054.09-.043.293-.15.315-.109.023-.022-.28.02-.314.044-.034.152-.439.065-.394-.302.135-.312.506-.377.81.022-.034.032-.068.054-.09-.086.146-.108.359-.14.505-.054.202-.076.315-.194.495-.184.292-.41.595-.648.854.087-.27.184-.528.356-.73-.27.033-.518.539-.625.685-.54.82-1.014 1.54-1.532 2.304-.27.393-.496.764-.798 1.135-.291.37-.648.685-.96 1.034-.173.19-.335.404-.496.607-.098.123-.184.416-.324.46-.324.08-.119-.28-.076-.438.335-.989.67-1.966 1.08-2.922.387-.899.776-1.82 1.218-2.708.291-.574.626-1.124.938-1.697.184-.349.421-.641.594-1.012.172-.37.366-.787.14-1.203-.227-.404-.777-.55-1.133-.73-.463-.225-.895-.382-1.359-.46-.56-.09-.917.067-1.424.303-.237.112-.474.292-.733.416-.119.056-.324.134-.432.224.022-.247.033-.517.13-.753.119-.27.345-.494.507-.73.226-.315.431-.63.647-.944.162-.248.356-.495.442-.765.087-.258-.043-.438-.086-.663-.032-.157-.043-.134.01-.292.033-.09.195-.213.184-.337-.01-.281-.183-.416-.399-.54a19.63 19.63 0 0 0-.841-.415c-.227-.101-.443-.214-.68-.315-.28-.112-.474-.236-.787-.101-.432.18-.766.562-.971.989-.13.258-.205.483-.367.72-.054.078-.13.19-.216.246-.043.034-.097-.022-.14.012-.226.18-.345.427-.518.651-.054.068-.312.416-.28.473.14.18.216-.17.302-.236.086-.057.14-.147.248-.068.032.022-.01.157.108.09.021-.011.162-.18.162-.18.054.113-.119.236-.173.315-.14.202-.226.404-.399.584-.054.056-.14.012-.194.09-.14.169-.27.416-.345.618-.076.203-.119.382-.194.562-.076.18-.12.326-.205.517-.098.214-.195.382-.303.63-.043.09-.129.348-.129.483-.021-.315.086-.663.194-.944.13-.315.248-.55.302-.877-.021.056-.162.27-.15.214.053-.259.398-.54.323-.82-.065-.226-.194.112-.227.19-.097.236-.237.416-.323.675-.367 1.022-.529 1.978-.28 3.045.053.236.215.349.345.517.096.135.043.158-.055.293-.27.382-.55.786-.83 1.168-.345.461-.68.933-1.057 1.36-.378.427-.766.832-1.143 1.26-.346.381-.67.786-1.025 1.168-.216.236-.561.494-.766.697-.4.404-.744.697-1.003 1.191.15-.124.323-.259.474-.37.065-.046.389-.563.4-.26 0 .136-.454.63-.637.697.01.169-.065.349-.194.405-.227.09-.065-.124-.28-.124-.152 0-.26.124-.4.259s-.42.326-.518.54c.022 0 .055-.012.087-.012-.065.068-.227.169-.227.259.011.157.13.022.205-.057a6.21 6.21 0 0 1 .367-.303c.032.169-.194.315-.324.416a4.54 4.54 0 0 0 .745-.495c.021-.022.075-.067.075.012-.01.202-.496.472-.56.517-.238.19-.26.28-.033.157-.27.27-.572.517-.895.73.054-.056.248-.18.054-.213-.108-.011-.356.292-.41.337-.227.214-.475.382-.637.573-.15.203-.032.124.076.113-.108.078-.227.247-.324.348-.13.135-.27.214-.399.315-.01.01.13-.113.022-.09-.292.067-.561.382-.723.595-.216.281-.054.135.086.158.238.045-.021.213-.13.315-.14.146-.312.314-.474.483-.119.123-.302.314-.464.393-.118.056-.183.011-.302.067-.118.057-.248.214-.313.315-.064.101-.064.191-.14.281-.108.135-.291.248-.42.349-.367.303-.702.606-1.08.899a2.916 2.916 0 0 1-.97.517c.291-.203.572-.405.83-.663.13-.124.238-.27.367-.405 0 0 .184-.146.076-.124-.216.057-.4.383-.561.495-.313.225-.604.303-.928.45-.259.112-.453.27-.7.033-.206-.19-.206-.54-.206-.82 0-.337.011-.675.011-1.012 0-.27.01-.46.086-.73.076-.315.108-.697.173-1.046.108-.606.28-1.213.399-1.831.054-.304.13-.607.194-.9.076-.348.184-.674.27-1.022.075-.315.183-.585.302-.9.032-.078.205-.573-.032-.528a.213.213 0 0 0-.087.045c.054-.168.119-.314.194-.46.108-.214.14-.326.162-.551a5.63 5.63 0 0 1 .151-.742c.065-.236.076-.438.119-.686.086-.449.237-.842.399-1.28.119-.327.259-.698.378-1.046.075-.213.118-.483.258-.663.162-.213.356-.303.475-.55.076-.158.076-.36.151-.518.119-.27.27-.54.4-.798.226-.438.441-.921.582-1.37.043-.147.172-.473-.076-.327-.172.101-.248.405-.345.607-.119.27-.248.55-.378.832-.075.157-.129.528-.302.595-.28.102-.118-.258-.064-.382.097-.236.205-.483.302-.708.108-.258.215-.416.366-.652.151-.235.28-.561.421-.82.032.157.162 0 .194-.045.108-.157.216-.28.302-.427.238-.427.4-.877.637-1.292.356-.641.733-1.26 1.078-1.9a102.78 102.78 0 0 1 2.233-3.821c.086-.135.13-.281.216-.416.086-.135.205-.225.302-.348.205-.281.334-.596.582-.843.249-.247.508-.46.723-.753.28-.371.583-.73.896-1.09.258-.293.507-.63.744-.944.259-.349.54-.652.852-.967.647-.663 1.273-1.247 1.941-1.933.173-.169.486-.64.81-.382.107.09.064.27.064.404-.01.248.011.506-.021.742-.065.517-.162.99-.335 1.484-.097.27-.226.528-.345.787-.097.224-.226.472-.302.73-.075-.045-.108.135-.13.169a3.98 3.98 0 0 0-.15.303c-.097.202-.162.405-.26.607-.161.37-.366.742-.57 1.079-.206.337-.368.685-.551 1.034-.216.393-.593.753-.81 1.135-.096.168-.02.247.12.405.064.067.226.123.334.146.108.022.205-.102.313-.079.108.023-.011.124.097.191.108.056.323.146.453.157.075.012.075-.09.108-.078.086.022.054.18.14.168.367-.01.55-.112.798-.416.108-.134.227-.292.356-.45.087-.1.216-.314.345-.392 0 .022-.01.056-.01.078.107-.09.194-.314.258-.427.12-.236.249-.45.367-.652.205-.37.4-.753.561-1.124.162-.37.41-.741.529-1.09.14-.427-.195-.045-.292.057.054-.293.13-.574.227-.855-.086.124-.205.214-.291.326-.119.169-.194.36-.313.54.043-.113.065-.225.119-.349.064-.157.15-.292.226-.45.022-.044.086-.168.086-.224.011-.112-.021-.18-.01-.281.01-.202.107-.427.183-.596.14-.326.27-.64.4-.955.128-.315.247-.607.366-.91.118-.304.205-.686.388-.956.108-.157.097-.033.054.09a6.433 6.433 0 0 1-.302.91c-.226.495-.464 1.012-.658 1.518-.043.112-.097.236-.13.337-.021.101.044.135 0 .225-.043.09-.27.258-.043.314.044.012.162-.18.173-.213.075-.157.13-.303.194-.45.108-.247.238-.483.356-.73.151-.315.27-.63.4-.967.053-.135.096-.28.161-.427 0-.011.13-.202.054-.224-.032-.012-.032.033-.043.044.043-.09.054-.202.086-.303.043-.124.097-.236.14-.348-.032.09-.064.19-.01.258.075.124.118-.112.129-.157.086-.281.162-.54.248-.82-.032.213-.043.438-.086.651-.076.371-.453 1.36-.561 1.708.28-.168.669-1.427.723-1.652.15-.663.334-1.112.302-1.742-.033-.528-.356-.798-.755-1.079-.195-.134-.4-.224-.594-.325-.194-.09-.41-.124-.604-.192-.194-.078-.377-.134-.56-.224a4.1 4.1 0 0 0-.55-.236c-.012 0-.066-.023-.076-.023-.076-.022-.162-.011-.238-.034-.107-.033-.183-.09-.302-.112-.107-.022-.312.023-.399.056-.194.068-.377.146-.507.259-.366.292-.647.595-1.035.82.032-.034.086-.135 0-.123-.087 0-.151.123-.205.168-.194.191-.4.382-.604.562-.065.056-.367.202-.216.27.086.045.227-.146.324-.146-.043.056-.043.135-.087.202-.043.067-.107.101-.172.157-.237.214-.475.416-.701.63-.475.45-.939.933-1.392 1.405-.41.438-.83.876-1.23 1.303-.14.146-.28.203-.42.349-.216.224-.42.46-.626.719-.42.506-.787 1-1.23 1.54-.053.067-.625.528-.345.652.13.056.238-.36.4-.281.161.078-.076.247-.162.337-.162.19-.335.775-.67.652-.118-.045.314-.686-.172-.203-.172.169-.356.427-.507.652-.162.225-.356.45-.485.708.237-.247.474-.506.712-.764-.076.337-.291.596-.486.865-.248.337-.399.663-.625 1.012-.248.393-.507.742-.798 1.146-.054.079-.648.585-.378.742.162.09.237-.562.475-.46.118.044-.195.438-.227.482-.14.214-.205.428-.324.641.087-.079.151-.393.303-.236.15.157-.41.787-.443.798-.334.146.033-.225-.097-.258-.194-.046-.194.18-.313.337-.13.168-.517.54-.356.798.022.045.184-.461.238-.36.097.169-.345.865.086.393.259-.28.582-.775.83-1.157.26-.371.508-.82.734-1.236.248-.45.55-.9.841-1.327-.129.529-.377.99-.647 1.439a130.06 130.06 0 0 0-.938 1.663c-.248.438-.486.888-.712 1.349-.119.247-.227.45-.367.72-.075.145-.216.393-.41.404.065-.124.151-.382-.108-.281-.259.1-.366.528-.463.764-.249.596-.443 1.135-.54 1.764.14-.292.28-.539.55-.719-.215.517-.41 1-.615 1.54-.129.348-.27.753-.474 1.079.043-.214.065-.439.13-.64.032-.09.107-.18.118-.27.01-.09-.032-.147-.043-.237-.076.236-.162.383-.248.619-.13.337-.162.517-.302.966-.076.225-.302.956-.572 1.169a2.82 2.82 0 0 0 0-.427c-.119.247-.259.506-.324.764-.021.113.022.169.011.259-.021.1-.075.19-.118.27a9.498 9.498 0 0 0-.54 1.224c-.15.427-.291.888-.431 1.327-.065.213-.108.438-.173.663-.01.033-.054.18-.043.18.173.01.28-.102.41-.214-.065.326-.162.596-.27.922-.021.067-.097.247.022.303.075.034.118-.247.118-.247.12-.349.28-.607.389-.944.108-.337.194-.663.291-1.034.065-.281.162-.63.248-.933.119-.405.237-.798.42-1.18.26-.573.55-1.158.874-1.709.011.057 0 .113 0 .17-.053.134-.097.258-.15.393a48.384 48.384 0 0 0-.917 2.663c-.087.281-.216.506-.313.776s-.162.539-.205.831c-.054.292-.086.596-.173.877-.075.258-.194.483-.259.753-.28 1.169-.604 2.326-.884 3.495-.313 1.281-.42 2.574-.518 3.889a15.562 15.562 0 0 1 .01-2.653c.022-.18.087-.37.087-.562 0-.067-.065-.134-.065-.236 0-.146.011-.28.054-.45.022-.078.108-.291.065-.404-.14.236-.205.349-.259.461 0-.079.022-.27-.097-.101s-.108.393-.183.63c-.043.157-.162.426-.108.617 0 .012.01.023.01.023.065-.09.055-.405.216-.191.087.112-.032.517-.075.652-.065.213-.076.393-.194.562-.043.056-.097-.012-.13.045-.064.112-.054.314-.064.416C0 40.055-.032 40.65.01 41.291c.01.27.076.528.097.797.022.225-.032.405.097.607.205.304.54.484.874.607.485.169.95.36 1.445.484.238.067.486.067.734.09.323.022.636.112.97.1.583-.022 1.166-.078 1.705-.336.582-.282 1.09-.697 1.586-1.113.571-.472 1.078-.978 1.607-1.472 1.046-1 2.05-2.035 3.063-3.08.486-.494.917-1.023 1.392-1.528.42-.45.873-.866 1.283-1.327.464-.528.917-1.067 1.381-1.618.194-.236.356-.483.55-.73.205-.237.442-.45.637-.72.895-1.18 1.715-2.382 2.556-3.63.14-.202.28-.517.54-.63.15-.067.345.023.506 0 .216-.022.443-.033.637-.112.68-.292 1.283-.696 1.92-1.079-.302.731-.658 1.439-.96 2.17-.302.73-.572 1.46-.874 2.18-.582 1.405-1.003 2.776-1.154 4.304-.033.304.075.596.248.843.205.292.464.394.798.484.637.168 1.305.314 1.963.348.335.022.68-.09.971-.202.26-.113.302-.281.442-.484.14-.202.292-.393.41-.607.162-.28.26-.595.41-.865.41-.708.863-1.371 1.305-2.057.173-.27.324-.528.507-.798.098-.146.216-.28.302-.46.044-.09.108-.27.195-.349.161-.135.215-.303.248-.506-.044.09-.195.203-.26.248a3.723 3.723 0 0 0-.485.416c-.021-.09.173-.259.195-.281.183-.214.312-.405.453-.607.248-.382.517-.708.82-1.046-.022.27.01.54-.076.787-.022.056-.097-.135-.108-.022-.14.775 0 1.472.151 2.236-.086-.19-.183-.36-.237-.562-.043-.157-.054-.337-.097-.505-.054-.236-.13-.484-.184-.72 0 .135-.065.259-.065.394 0 .236.044.46.022.696a1.7 1.7 0 0 0-.205-.36c.022.08 0 .192.011.26.01.145.032.291.065.438.064.303.097.64.226.899.28.55.637.876 1.165 1.124.27.123.55.18.81.337.15.09.323.213.495.258.41.09.82.281 1.24.236 1.08-.123 1.824-.697 2.579-1.45.507-.505.874-1.022 1.337-1.562.248-.28.464-.517.756-.854.107-.123.323-.596.614-.528.184.045.184.517.227.618.15.416.313.663.572.955.215.248.388.461.647.663.259.203.582.293.917.383.334.09.668.292 1.035.235.334-.056.583-.382.777-.618.485-.573.906-1.146 1.391-1.708.486-.562.982-1.124 1.413-1.72.076-.1.14-.247.227-.314.119-.079.13-.056.172.079.033.1.011.247.011.37 0 .259-.021.517-.01.776.01.416-.011.81.107 1.225.097.36.248.73.583.921.334.192.712.147 1.079.192.41.044.798.18 1.208.157.41-.023.712-.146 1.014-.46.302-.316.528-.731.755-1.113.258-.416.507-.832.755-1.26.01-.01.021-.01.021-.022a2.01 2.01 0 0 0 .313-.37c.054-.023.183-.17.183-.17.173-.224.216-.449.389-.674.075-.1.582-.854.399-.91-.453-.135-.572.596-.82.854.184-.36.356-.742.572-1.09.075-.123.172-.202.259-.337.043-.068.097-.157.13-.236 0 0 .02-.135-.012-.113-.075.057-.14.147-.215.214a.673.673 0 0 0 .097-.382c-.173.315-.356.607-.54.91.216-.46.432-.888.648-1.348l.032-.068c.086-.168.172-.326.27-.494.097-.169.183-.337.27-.506 0-.011.01-.011.01-.023a.228.228 0 0 1 .054.034c-.022.079-.043.157-.054.236l-.032.169c-.011.034-.033.056-.033.067a9.353 9.353 0 0 0-.302.708c-.021.045-.054.079-.065.124 0 .011 0 .011-.01.022-.011.045.054.057.075.023.087-.135.173-.281.248-.427.119-.18.216-.371.302-.585.195-.483.356-.966.55-1.45-.129 1.45-.248 2.889-.248 4.35 0 .697.022 1.405.076 2.102.022.28.075.573.259.798.183.213.442.303.69.393.604.202 1.176.45 1.812.37.184-.022.346-.055.496-.112.367-.27.68-.595.971-.955.346-.427.68-.865 1.004-1.315.237-.348.43-.73.668-1.079.076-.202.151-.393.248-.54.033-.055.065-.123.097-.19v.022c.022.101.044.203.076.304.183.303.485.775.593.887.184.203.367.371.593.506.41.236.81.416 1.273.562.464.146.96.158 1.435.068.54-.102 1.057-.236 1.575-.371a5.374 5.374 0 0 0 1.024-.382c.443-.236.831-.562 1.241-.843.237-.169.475-.315.733-.472.195-.124.518-.281.615-.484.119-.28-.118-.146-.258-.067-.173.09-.378.214-.561.303.377-.28.755-.539 1.154-.798.13-.078.172-.146.313-.258.107-.09.161-.146.366-.27.205-.123.842-.46.82-.82 0-.011-.388.213-.41.27 0-.068.173-.18.205-.214.151-.18.248-.348.41-.494.162-.158.324-.281.475-.439.097-.09.205-.18.302-.28.043-.046.086-.08.118-.113.033-.045 0-.056 0-.101.151-.236.324-.427.507-.663.033-.034.162-.18-.021-.169-.043 0-.205.124-.238.191.13-.191.238-.326.443-.494.032-.034.248-.18.259-.259.01-.079-.011 0-.044-.011.087-.169.098-.27-.118-.236.15-.191.334-.326.464-.54.064-.112.075-.28.15-.416.195-.325.26-.528-.053-.157-.022.034-.248.214-.27.191-.022-.034.119-.168.108-.18-.108-.09-.086-.09-.183.012-.195.213-.41.427-.626.64-.766.73-1.521 1.484-2.298 2.203-.302.27-.625.506-.927.764-.4.349-.766.675-1.187.99-.798.584-1.564 1.224-2.405 1.764-.378.247-.81.326-1.262.382a1.202 1.202 0 0 1-.561-.056c-.108-.045-.205-.191-.324-.247-.01.01 0 .033 0 .045a.388.388 0 0 0 .01.224c-.053-.09-.107-.157-.182-.123-.205.09.28.472.28.505.022.191-.173-.056-.205-.09-.13-.18-.259-.303-.378-.505-.064-.113-.323-.618-.097-.73.097-.046.097.404.227.438-.054-.113-.086-.45-.13-.54-.15-.292-.194-.506-.226-.81-.043-.392-.032-.775-.032-1.19 0-.293.021-.607.14-.9-.054.326-.076.63 0 .945.021-.012.021-.034.021-.057-.01.146-.021.394.076.495.13.135.119-.011.119-.146 0-.191-.054-.405-.044-.618.011-.214.054-.45.097-.675.044-.19.076-.382.162-.573.033-.079.011-.067.043-.18.097-.292.087-.562.292-.831.14-.169.334-.236.507-.349.172-.112.442-.225.614-.326.238-.135.637-.292.864-.438.226-.157.226-.011.453-.157.388-.248.7-.405 1.067-.686.195-.146.356-.36.54-.54.064-.067.388-.325.323-.427-.118-.168-.27.203-.334.259-.173.157-.345.28-.529.427.162-.236.324-.427.518-.64.076-.09.13-.18.227-.293.032-.034.226-.28.313-.258.086.022-.173.135-.12.168.109.045.152-.1.217-.157 0 0-.011.011 0 0 .194-.157.442-.303.453-.573 0-.023-.26.09-.313.168.021-.078.118-.134.162-.19.15-.17.593-.405.765-.574.044-.045.432-.258.303-.37-.033-.035-.076-.023-.12-.012.13-.135.27-.258.39-.416.193-.247.258-.573.388-.865.021-.056.15-.203.129-.259-.065-.157-.119.034-.162.09-.226.315-.377.596-.604.933-.227.337-.582.64-.928.865.26-.382.54-.73.81-1.101.172-.236.323-.472.496-.73.118-.192.204-.461.366-.641-.054.112-.086.225-.14.337.259-.382.42-.787.561-1.225-.054.382-.162.764-.227 1.146.033-.067.108-.112.14-.168.087-.135.14-.248.195-.394.118-.348.205-.629.313-1.011.14-.517.215-1.101.043-1.63-.043-.123-.13-.067-.194-.146-.033-.045-.022-.112-.065-.146a1.943 1.943 0 0 0-.615-.472c-.28-.135-.572-.225-.863-.326-.259-.09-.485-.28-.744-.36-.593-.19-1.144-.247-1.715.045-.194.102-.378.225-.561.349-.01 0-.01.011-.022.011l-.226.101a.833.833 0 0 0-.216.124c-.01 0-.032 0-.043.011-.13.146.194-.056.075.113-.032.044-.507.528-.539.573-.032.022-.615.91-.647.933-.032.022.248-.563.216-.551 0 0-.475.562-.658.764-.097.101.021-.101.021-.101l.572-.708s.27-.281.28-.281a.245.245 0 0 1 .054-.09c.108-.112.227-.225.313-.348.032-.057-.043-.113-.086-.068-.184.214-.388.405-.572.607-.022.023-.043.056-.075.079a.383.383 0 0 0-.087.1 6.547 6.547 0 0 0-.345.428c-.172.225-.324.46-.474.697-.292.36-.572.742-.831 1.135-1.23 1.866-2.103 3.9-2.87 6.013-.226.607-.29 1.247-.42 1.877-.075.404-.086 1.022-.14 1.36-.194.37-.464.831-.54.955-.183.292-.712 1.056-.906 1.37-.356.597-.302.316-.69.979-.14.236-.485.663-.906.573-.345-.079-.162-.585-.162-.776 0-.393-.022-.73 0-1.079.065-1.315.291-2.349.55-3.63.507-2.528 1.262-4.967 2.212-7.35.237-.584.086-.225.355-.787.292-.595.55-1.213.863-1.787.658-1.202 1.37-2.36 2.06-3.529a34.28 34.28 0 0 1 1.069-1.708c.14-.213.258-.427.506-.54.238-.1.874-.235 3.377-.629 1.197-.19 2.384-.404 3.581-.573 2.395-.326 4.81-.64 7.216-.764.68-.034 1.37-.079 2.05-.113.14-.01.615-.033.097-.078-.033 0-.043-.056-.01-.09.02-.023-.023-.045-.076-.056-.788.01-.971-.068-1.004-.158-.01-.022.432-.01.507-.022.626-.034 1.316-.023 1.413-.023.162 0 .26.012.356.034.076.011.302.034.378.056.075.023.097.068.075.068-.28 0-.614.033-.668.045-.033 0-.119.033-.14.033-.087.012-.162.034-.249.057-.064.01-.162.033-.075.078.01.011.021.011.043.023.032 0 .075 0 .108-.012.507-.022.981-.033 1.456-.056.14-.011.313-.045.431-.067.022 0 .087-.011.054-.034-.032-.022-.118-.022-.15-.022-.162-.012.129-.09-.033-.09-.097 0-.345-.101-.334-.113-.151-.045-.248-.067-.119-.078h.302c.119 0 .248.01.378.022.259.023.161-.056.42-.034.054 0 .108.012.173.012.086.01.13.022.216.01.086-.01.097-.089.215-.078.033 0 .615.146.389-.022zM33.46 24.388c.237-.595.485-1.18.744-1.753.27-.584.615-1.101.95-1.64.355-.574.711-1.113 1.121-1.664.14-.18.367-.483.615-.506.237-.022.323.146.313.349-.011.314-.162.595-.27.876-.14.337-.291.64-.464.956-.313.573-.626 1.135-1.003 1.674-.313.438-.615.832-.97 1.248-.335.382-.756.73-1.177 1.011.054-.191.065-.382.14-.55zm-23.17-6.586c.108-.348.248-.618.41-.966.021-.045.194-.674.345-.46.01.022-.27.437-.302.527-.173.405-.313.81-.529 1.18.033-.09.043-.19.076-.28zm-1.047-1.865c.065-.158.162-.337.26-.461.064-.079.075-.067.15-.112.054-.034.14-.012.195-.034-.12.157-.227.27-.356.438-.076.09-.173.27-.28.349-.012.01-.012 0-.022 0 .021-.057.032-.124.053-.18zm-1.121 5.53c.29-.484.539-1.001.809-1.484.312-.573.614-1.124.927-1.686-.108.315-.15.63-.313.933-.204.37-.431.73-.636 1.101a5.93 5.93 0 0 1-.41.652c-.065.101-.172.225-.226.337-.054.124-.108.371-.248.393-.13.012.086-.236.097-.247zM4.52 30.917c.097-.427.216-1.045.54-1.416-.12.382-.238.742-.378 1.124-.087.247-.194.528-.248.81.021-.237.032-.237.086-.518zm-.162 2.26c-.01.123-.01.246-.021.303-.076.404-.205.696-.324 1.056.054-.46.205-.933.345-1.36zm10.399-1.866c-.054.056-.12.112-.173.168.075-.09.14-.169.237-.236l-.064.067zm21.886-2.934c-.238.382-.507.686-.788 1.057-.215.27-.463.618-.755.831.302-.427.604-.843.928-1.258.14-.191.28-.371.431-.562.022-.034.043-.08.076-.102.032-.022.162-.056.108.034zm1.467-1.764c-.033.168-.184.607-.4.393-.118-.112.281-.54.421-.573 0 .056 0 .112-.021.18zm1.531-1.551c.28-.585.561-1.17.874-1.742.14-.27.302-.517.475-.776.097-.146.183-.393.356-.46.043-.023-.065.247-.076.27-.108.19-.216.37-.334.561-.248.405-.507.776-.723 1.203-.162.314-.313.685-.572.944zm30.042.258c.14-.09.312-.168.41-.326a.705.705 0 0 1-.249.371c-.064.056-.118.113-.205.135-.021 0-.075-.023-.097-.023.054-.056.065-.112.14-.157zm-6.257 3.102c.345-.011.68-.056 1.025-.135a1.862 1.862 0 0 1-1.133.124.354.354 0 0 0 .108.011zm.162-8.317c.345-1.157 1.251-2.73 1.855-3.765.518-.888 1.208-1.596 1.823-2.394.184-.236.42-.651.734-.505.55.258.194.899.021 1.258a18.352 18.352 0 0 1-1.801 2.923c-.194.258-.367.528-.561.775-.194.247-.68.843-.906 1.034-.205.169-.507.45-.712.63-.032.022-.431.337-.518.314-.043 0 .043-.213.065-.27z" fill="#E7F3E2"/></svg>