<?xml version="1.0" standalone="no"?>
<!DOCTYPE svg PUBLIC "-//W3C//DTD SVG 20010904//EN"
 "http://www.w3.org/TR/2001/REC-SVG-20010904/DTD/svg10.dtd">
<svg version="1.0" xmlns="http://www.w3.org/2000/svg"
 width="1360.000000pt" height="1360.000000pt" viewBox="0 0 1360.000000 1360.000000"
 preserveAspectRatio="xMidYMid meet">
<metadata>
Created by potrace 1.14, written by Peter Selinger 2001-2017
</metadata>
<g transform="translate(0.000000,1360.000000) scale(0.100000,-0.100000)"
fill="#000000" stroke="none">
<path d="M10106 10287 c-14 -19 -26 -39 -26 -45 0 -7 -4 -12 -8 -12 -4 0 -13
-12 -19 -27 -7 -16 -17 -35 -23 -43 -22 -33 -100 -171 -100 -178 0 -5 -12 -24
-26 -43 -14 -19 -37 -59 -51 -89 -14 -30 -49 -92 -79 -137 -69 -105 -72 -113
-42 -106 13 3 19 1 13 -4 -5 -4 -15 -17 -21 -28 -6 -11 -15 -19 -20 -19 -5 1
-27 -4 -49 -10 -22 -6 -51 -11 -65 -9 -14 1 -34 -2 -45 -7 -11 -4 -29 -11 -40
-15 -16 -5 -17 -8 -5 -15 8 -5 18 -6 22 -4 4 3 8 0 8 -5 0 -6 -6 -11 -12 -12
-7 0 -22 -3 -33 -5 -11 -3 -63 -7 -115 -9 -83 -4 -135 -10 -135 -15 0 -7 -179
-25 -295 -30 -39 -1 -42 -2 -21 -11 13 -5 22 -11 20 -13 -2 -2 -56 -6 -119 -9
-63 -4 -140 -14 -170 -22 -158 -47 -202 -56 -275 -59 -56 -2 -107 -13 -170
-34 -84 -29 -123 -38 -185 -46 -14 -2 -44 -7 -67 -11 -29 -4 -43 -3 -43 4 0 6
5 12 10 12 6 1 13 2 18 3 4 1 25 5 47 10 47 9 95 33 95 47 0 6 -7 6 -20 -1
-12 -7 -20 -7 -20 -1 0 11 20 18 70 26 63 9 95 18 115 31 11 8 15 14 9 14 -5
0 -15 -5 -22 -12 -7 -7 -12 -9 -12 -6 0 4 -15 2 -32 -3 -18 -5 -67 -12 -108
-15 -139 -9 -170 -17 -170 -41 0 -9 5 -11 13 -7 8 6 8 3 -2 -9 -15 -18 -43
-25 -148 -31 -39 -3 -89 -8 -110 -12 -37 -6 -37 -6 -18 11 14 12 15 15 4 12
-9 -3 -41 -8 -71 -12 -62 -8 -84 -18 -74 -34 4 -6 10 -10 14 -7 4 2 32 7 62
10 30 3 77 9 104 13 36 4 47 3 42 -6 -4 -6 -15 -11 -24 -11 -9 0 -71 -14 -137
-31 -146 -37 -151 -38 -195 -45 -49 -8 -50 -8 -98 5 -24 7 -53 9 -65 6 -31 -9
-101 -38 -107 -45 -9 -11 -77 -40 -101 -43 -13 -2 -29 2 -37 9 -9 9 -19 11
-30 5 -28 -15 -165 -51 -192 -51 -24 0 -24 1 8 20 18 11 30 25 27 30 -4 6 -10
8 -15 5 -5 -3 -41 -8 -80 -10 -71 -4 -127 -26 -115 -46 7 -10 -5 -16 -49 -23
-22 -4 -26 -2 -18 6 24 24 10 24 -95 2 -97 -21 -144 -29 -209 -39 -22 -3 -172
-31 -209 -39 -11 -2 -4 -4 15 -5 21 -1 30 -5 25 -10 -15 -15 -72 -23 -180 -26
-55 -2 -110 -5 -122 -9 -13 -3 -33 -8 -45 -11 -37 -8 -121 -25 -148 -30 -14
-3 -47 -9 -75 -15 -86 -18 -153 -30 -195 -35 -23 -3 -46 -7 -110 -20 -14 -3
-41 -8 -60 -12 -77 -14 -165 -58 -179 -90 -9 -19 -7 -27 7 -41 22 -24 25 -41
10 -59 -10 -12 -9 -18 7 -29 10 -8 23 -14 27 -14 5 0 2 -10 -6 -22 -25 -35
-19 -64 29 -154 26 -48 41 -85 35 -89 -17 -11 -11 -45 8 -45 9 0 30 -9 45 -19
28 -18 29 -18 133 16 154 49 403 114 569 147 17 4 39 8 50 10 11 3 135 30 275
61 140 31 262 59 270 60 8 2 53 13 100 24 47 11 96 22 110 25 14 2 74 16 134
31 120 29 135 33 186 41 19 3 38 8 41 10 3 2 21 6 40 9 19 3 42 8 51 11 9 3
25 7 35 9 10 2 52 11 93 20 41 9 86 19 100 21 14 3 54 12 90 20 36 9 72 17 80
19 8 2 38 9 65 15 28 6 61 14 75 16 14 3 52 11 85 19 97 23 193 44 228 50 17
3 50 11 72 17 22 5 51 12 65 14 14 2 36 7 50 11 38 10 43 11 70 16 14 3 104
22 200 42 96 20 184 38 195 39 11 2 45 8 75 14 30 7 69 14 85 17 17 3 39 7 50
9 11 2 40 7 65 11 45 7 58 10 115 21 17 4 44 8 60 10 17 1 41 5 55 8 14 2 46
7 71 10 25 4 59 9 75 12 16 3 47 7 69 9 22 2 40 4 40 5 0 1 16 3 35 5 19 2 50
6 68 8 17 3 32 3 32 1 0 -5 -80 -152 -129 -239 -26 -44 -54 -98 -64 -120 -10
-22 -22 -48 -27 -57 -6 -10 -6 -19 0 -23 5 -3 15 5 22 18 13 24 87 137 111
171 7 11 16 15 19 10 6 -8 -33 -90 -138 -294 -22 -41 -50 -106 -64 -143 -14
-38 -29 -68 -35 -66 -12 5 -7 42 7 50 5 3 9 8 8 10 0 2 6 21 14 41 24 56 19
65 -15 32 -33 -31 -43 -52 -78 -154 -29 -85 -32 -94 -33 -100 -1 -11 -47 -129
-72 -183 -14 -32 -26 -59 -26 -62 0 -2 -13 -32 -29 -67 -16 -35 -45 -98 -65
-141 -20 -43 -36 -80 -36 -82 0 -2 -20 -46 -45 -99 -25 -53 -45 -99 -45 -101
0 -7 -150 -322 -315 -660 -171 -352 -199 -410 -200 -415 -11 -47 -175 -368
-280 -550 -43 -74 -95 -169 -117 -212 -67 -135 -126 -180 -171 -130 -27 29
-27 57 -3 157 2 6 6 28 10 50 20 107 80 300 122 393 13 29 24 55 24 58 0 15
95 201 134 261 52 80 141 255 150 295 5 21 0 32 -29 57 -20 17 -46 31 -59 31
-12 0 -33 11 -46 26 -18 18 -31 23 -47 19 -16 -4 -21 -2 -17 9 7 17 -51 53
-91 57 -56 4 -81 -12 -150 -96 -22 -26 -44 -53 -50 -59 -5 -6 -39 -47 -75 -91
-35 -44 -67 -82 -70 -85 -3 -3 -21 -25 -40 -50 -19 -25 -45 -56 -56 -70 -12
-14 -67 -79 -122 -145 -56 -66 -135 -155 -176 -199 -42 -43 -76 -80 -76 -82 0
-2 -33 -38 -72 -80 -40 -42 -99 -104 -130 -138 -32 -33 -68 -73 -82 -87 -30
-32 -84 -59 -104 -52 -11 5 -13 17 -8 55 7 47 12 64 43 137 9 18 16 39 17 45
1 6 11 31 22 56 42 90 54 118 54 128 0 6 3 12 8 14 4 2 24 37 45 78 50 98 92
172 145 253 23 36 42 70 42 75 0 6 3 12 8 14 8 3 61 71 77 99 10 17 80 101
124 148 12 14 57 64 100 110 262 291 338 359 466 423 84 42 154 66 215 73 99
10 130 23 130 51 0 8 4 14 9 14 5 0 11 12 14 28 4 23 -2 34 -43 72 -26 25 -74
60 -106 79 -33 19 -70 41 -84 51 -94 62 -155 83 -255 84 -76 1 -114 -9 -215
-57 -27 -12 -172 -106 -180 -116 -3 -3 -21 -18 -41 -33 -73 -54 -251 -238
-390 -403 -63 -74 -84 -98 -117 -132 -18 -19 -37 -45 -42 -59 -16 -42 13 -28
58 27 23 29 42 48 42 44 0 -8 -47 -74 -60 -85 -3 -3 -34 -43 -68 -88 -68 -91
-97 -148 -81 -158 13 -7 36 12 44 37 4 10 11 19 16 19 6 0 -3 -26 -20 -57 -17
-32 -35 -69 -41 -83 -5 -14 -14 -32 -19 -40 -5 -8 -12 -22 -15 -30 -3 -8 -24
-44 -46 -79 -22 -34 -40 -67 -40 -72 0 -5 -3 -9 -8 -9 -8 0 -30 -46 -35 -75
-2 -11 -25 -85 -50 -164 -45 -137 -55 -170 -56 -198 -1 -7 -5 -13 -10 -13 -5
0 -3 28 6 63 8 34 17 73 19 87 3 14 7 31 10 39 4 11 2 11 -10 2 -9 -7 -18 -21
-21 -32 -10 -32 -24 -21 -15 11 5 17 7 30 5 30 -4 0 15 47 54 132 23 51 26 68
11 68 -5 0 -18 -21 -30 -47 -11 -27 -26 -60 -33 -75 -21 -49 -26 -19 -6 39 10
31 17 58 15 61 -3 2 -25 -38 -50 -89 -43 -91 -68 -128 -141 -214 -19 -22 -67
-80 -106 -130 -107 -136 -124 -156 -211 -260 -38 -45 -106 -133 -143 -185 -22
-30 -42 -57 -45 -60 -3 -3 -30 -36 -61 -75 -71 -89 -145 -165 -187 -194 -34
-24 -104 -37 -125 -24 -6 4 -15 8 -19 8 -20 0 -66 58 -75 93 -25 97 4 308 80
577 29 102 53 140 110 171 81 46 102 57 184 98 43 22 80 43 81 48 2 4 8 8 14
8 16 0 101 61 158 116 30 28 80 76 111 105 31 30 64 68 73 84 34 63 80 126
134 183 34 37 86 102 91 115 2 5 12 18 22 28 11 11 19 25 19 33 0 8 4 16 9 18
15 5 111 180 128 233 19 61 25 181 12 255 -5 30 -11 66 -13 78 -3 13 -11 31
-19 40 -9 10 -17 24 -19 32 -3 14 -120 90 -139 90 -5 0 -9 4 -9 9 0 5 -10 12
-22 16 -13 4 -25 8 -28 9 -3 1 -23 8 -45 15 -22 7 -55 23 -74 34 -25 15 -54
22 -100 23 -156 4 -248 -58 -431 -291 -30 -39 -57 -72 -60 -75 -3 -3 -16 -22
-30 -42 -14 -21 -28 -38 -32 -38 -5 0 -8 -4 -8 -10 0 -5 -28 -49 -61 -97 -84
-119 -217 -349 -230 -395 -5 -21 -23 -52 -40 -70 -17 -18 -42 -57 -55 -86 -27
-60 -30 -76 -9 -48 21 28 19 12 -5 -34 -23 -45 -27 -78 -5 -40 17 30 64 126
76 158 5 12 15 22 23 22 9 0 21 10 27 23 7 12 15 24 18 27 3 3 15 21 25 40 22
41 85 140 98 155 16 18 -30 -78 -71 -150 -22 -38 -52 -95 -67 -125 -14 -30
-39 -81 -54 -112 -29 -57 -26 -89 4 -43 9 13 16 26 16 29 0 15 73 126 80 121
12 -7 -62 -147 -114 -215 -22 -30 -51 -79 -63 -109 -13 -30 -34 -69 -48 -87
-14 -18 -29 -44 -35 -59 -5 -14 -14 -24 -19 -20 -6 3 -4 19 5 40 16 38 18 65
6 65 -16 0 -41 -58 -57 -135 -16 -79 -45 -153 -72 -184 -8 -9 -28 -32 -44 -51
l-29 -35 16 40 c9 22 21 46 26 53 19 22 -8 13 -28 -10 -10 -13 -95 -138 -189
-278 -165 -249 -239 -355 -266 -383 -163 -171 -223 -240 -233 -274 -7 -21 -42
-41 -53 -30 -6 7 36 147 50 164 5 7 6 13 2 13 -4 0 -1 7 6 17 8 9 13 19 12 22
-8 18 108 306 242 606 32 71 93 194 125 250 13 22 33 58 45 80 34 62 64 114
110 190 95 159 94 247 -3 309 -54 34 -246 116 -271 116 -12 0 -21 3 -21 8 0
12 -126 14 -171 2 -44 -12 -74 -26 -213 -100 l-79 -41 6 45 c4 25 13 60 22 78
11 26 149 227 193 283 31 40 54 91 57 130 2 24 0 47 -4 49 -15 10 -12 79 5 97
20 22 13 75 -14 96 -54 43 -325 166 -364 165 -66 -2 -148 -76 -202 -183 -50
-100 -78 -139 -97 -139 -17 0 -122 -133 -134 -169 -9 -30 13 -26 27 4 13 29
43 41 63 25 10 -9 16 -7 24 7 10 17 10 17 11 1 0 -10 -4 -18 -9 -18 -5 0 -24
-25 -42 -55 -18 -30 -36 -55 -40 -55 -28 0 -97 -118 -114 -197 -3 -18 -10 -33
-14 -33 -4 0 -8 -6 -8 -13 0 -11 -70 -176 -80 -187 -10 -11 10 59 39 138 17
45 28 85 25 89 -3 3 1 20 10 37 10 17 16 34 15 39 -1 4 2 7 6 7 4 0 9 12 10
26 2 28 -16 29 -30 1 -4 -9 -13 -25 -18 -34 -6 -10 -13 -25 -16 -33 -3 -8 -12
-28 -19 -45 -13 -31 -27 -72 -31 -90 -1 -5 -7 -29 -13 -53 -17 -62 -24 -127
-23 -215 2 -97 16 -152 51 -197 15 -19 27 -40 26 -45 0 -11 -62 -99 -180 -257
-33 -44 -64 -87 -70 -96 -5 -8 -17 -23 -25 -32 -8 -9 -44 -49 -80 -89 -73 -82
-93 -104 -159 -177 -25 -28 -71 -79 -101 -115 -30 -35 -68 -75 -85 -89 -95
-79 -245 -243 -233 -256 3 -2 30 21 62 52 31 31 60 54 62 51 10 -10 -24 -62
-65 -100 -23 -21 -41 -46 -41 -57 0 -11 -9 -24 -20 -30 -11 -6 -20 -7 -20 -1
0 17 -33 22 -54 7 -65 -44 -155 -149 -136 -161 4 -3 22 8 38 25 36 36 46 38
36 8 -6 -21 -5 -22 12 -8 10 8 29 23 41 34 26 22 43 15 23 -10 -8 -8 -33 -29
-57 -45 -23 -16 -42 -34 -40 -39 1 -5 -20 -30 -48 -54 -35 -31 -54 -42 -65
-36 -11 6 -37 -12 -98 -68 -45 -43 -82 -84 -82 -93 0 -24 -67 -86 -101 -93
-19 -3 -50 -26 -80 -57 -51 -53 -58 -65 -35 -56 8 3 19 0 25 -7 8 -9 -12 -34
-79 -99 -49 -48 -94 -88 -100 -88 -48 -6 -70 -22 -106 -79 -21 -33 -42 -60
-46 -60 -5 0 -57 -41 -116 -90 -108 -92 -167 -131 -212 -145 -18 -5 -12 2 20
26 50 36 154 139 147 145 -2 3 -26 -15 -53 -39 -58 -52 -85 -68 -183 -106 -71
-28 -76 -28 -97 -13 -35 25 -47 76 -46 182 2 125 8 225 15 236 2 5 8 29 11 54
3 25 8 56 11 70 3 14 7 41 10 60 3 19 7 44 9 55 3 11 12 47 20 80 8 33 24 107
36 165 12 58 23 112 25 120 16 59 26 98 30 117 3 12 10 34 15 48 5 14 8 25 5
25 -2 0 4 20 15 45 10 24 26 67 34 95 14 49 14 51 -4 58 -19 7 -19 9 5 59 21
47 30 79 40 153 14 95 52 261 72 310 3 8 7 20 9 25 8 28 75 208 80 216 3 6 8
24 11 41 5 32 11 42 55 89 16 15 28 31 28 34 0 4 7 13 15 21 8 9 15 25 15 36
0 12 30 82 66 157 76 155 128 294 113 300 -11 3 -49 -27 -49 -40 0 -4 -20 -50
-45 -103 -24 -53 -48 -108 -51 -123 -8 -33 -43 -75 -56 -67 -17 10 9 83 73
204 16 30 42 82 58 114 17 32 47 75 68 95 43 41 53 55 89 131 45 96 85 171
193 360 46 80 99 174 119 210 20 36 48 85 64 110 15 25 33 56 40 70 7 14 35
61 62 105 27 44 58 96 68 115 11 19 24 40 28 45 4 6 22 37 40 70 18 33 44 71
56 84 13 13 24 27 24 32 0 4 6 14 14 21 7 8 19 26 27 40 8 15 46 60 85 100 38
40 95 105 126 143 31 39 68 84 82 100 15 17 46 55 69 85 22 30 48 62 57 72 8
9 26 31 40 50 46 61 465 477 492 487 19 7 31 6 43 -3 16 -11 17 -26 12 -127
-3 -63 -8 -123 -10 -134 -3 -11 -10 -41 -16 -67 -13 -56 -57 -175 -75 -203 -7
-11 -21 -44 -32 -74 -10 -29 -25 -56 -31 -58 -7 -3 -13 -13 -13 -22 0 -9 -4
-21 -8 -26 -5 -6 -24 -46 -42 -90 -19 -44 -55 -116 -80 -160 -25 -44 -59 -107
-75 -140 -17 -33 -33 -61 -37 -63 -5 -2 -8 -8 -8 -14 0 -5 -29 -49 -65 -96
-36 -48 -65 -95 -65 -105 0 -37 57 -72 101 -62 21 5 31 2 35 -8 7 -20 59 -41
83 -34 12 3 22 -1 25 -10 7 -18 56 -12 92 12 13 8 52 50 85 93 34 42 67 78 73
80 13 3 41 52 166 300 127 250 138 281 82 230 -14 -13 -23 -18 -20 -13 3 6 9
26 12 46 3 20 9 44 12 54 13 32 -16 6 -47 -43 -38 -59 -37 -45 1 30 20 39 30
73 30 103 0 25 4 53 10 63 16 27 157 383 171 429 6 24 20 50 30 59 15 14 15 7
-6 -58 -12 -40 -35 -100 -50 -133 -54 -118 -105 -249 -105 -269 0 -12 -7 -31
-15 -43 -10 -14 -12 -24 -5 -28 10 -6 40 17 40 30 0 4 27 64 59 133 65 140
123 285 126 317 4 37 17 64 30 59 8 -3 17 12 25 43 14 51 33 84 25 42 -3 -13
-7 -36 -10 -50 -3 -14 -12 -45 -21 -70 -8 -24 -17 -51 -19 -59 -2 -8 -13 -39
-24 -69 -12 -29 -20 -55 -18 -58 11 -10 69 117 94 202 87 304 87 383 -3 464
-43 40 -118 84 -170 101 -21 7 -43 15 -49 19 -5 3 -18 7 -27 8 -9 2 -45 16
-80 31 -69 32 -94 41 -135 48 -15 3 -32 9 -38 13 -10 7 -52 7 -86 -1 -9 -2
-28 -11 -42 -21 -15 -9 -31 -17 -37 -17 -5 0 -10 -4 -10 -8 0 -12 -137 -117
-153 -117 -8 0 -45 -27 -81 -60 -37 -33 -74 -64 -82 -68 -8 -5 -12 -13 -8 -18
4 -6 15 -4 30 6 47 30 24 -7 -38 -63 -74 -67 -277 -270 -433 -433 -61 -64
-117 -120 -125 -125 -17 -10 -76 -76 -130 -143 -19 -24 -40 -48 -45 -55 -6 -6
-35 -42 -64 -80 -29 -38 -70 -88 -92 -110 -58 -60 -70 -124 -14 -72 47 44 65
25 20 -19 -13 -14 -22 -25 -19 -25 3 0 -9 -20 -26 -45 -38 -56 -76 -64 -65
-14 8 37 -3 33 -48 -15 -39 -44 -137 -180 -131 -185 2 -2 12 7 23 20 51 65 71
84 71 68 0 -13 -73 -133 -90 -149 -3 -3 -19 -27 -35 -55 -35 -61 -116 -186
-130 -201 -5 -6 -21 -27 -35 -47 -14 -20 -28 -37 -32 -37 -3 0 -16 -16 -28
-35 -15 -25 -19 -39 -12 -52 9 -15 13 -12 31 18 11 19 21 37 21 42 0 4 7 7 16
7 11 0 14 -6 8 -22 -3 -13 -11 -24 -15 -26 -5 -2 -9 -10 -9 -18 0 -8 -3 -14
-7 -14 -5 0 -13 -11 -20 -25 -9 -21 -8 -27 5 -34 14 -8 14 -13 -2 -49 -10 -22
-32 -53 -49 -69 -28 -26 -30 -27 -24 -6 3 13 1 26 -4 29 -11 7 -41 -15 -34
-25 2 -4 -6 -18 -18 -32 -40 -43 -57 -73 -57 -99 1 -24 2 -23 21 10 l20 35 -6
-50 -7 -50 31 34 c34 38 131 175 131 186 0 3 9 15 20 27 11 12 20 28 20 35 0
7 5 13 10 13 6 0 10 6 10 14 0 7 7 19 15 26 9 7 14 15 11 17 -3 4 38 75 119
206 39 62 49 60 22 -5 -23 -58 -30 -71 -125 -238 -112 -197 -120 -213 -164
-300 -24 -47 -46 -87 -49 -90 -5 -5 -16 -31 -20 -48 -1 -4 -13 -24 -25 -44
-13 -21 -24 -41 -24 -46 0 -9 -43 -52 -52 -52 -3 0 -4 8 -1 19 7 29 -13 34
-41 9 -33 -31 -109 -219 -135 -335 -5 -24 -7 -43 -6 -43 2 0 14 18 26 40 12
21 28 41 36 44 18 7 17 5 -16 -77 -16 -40 -48 -118 -70 -175 -22 -57 -45 -111
-50 -120 -18 -30 -13 12 8 72 11 33 15 59 10 67 -6 10 -9 11 -9 1 0 -7 -8 -31
-19 -55 -10 -23 -37 -98 -59 -167 -21 -69 -50 -143 -63 -165 l-24 -40 -3 35
-4 35 -28 -60 c-15 -33 -26 -70 -24 -82 2 -12 -16 -63 -40 -115 -24 -51 -53
-118 -63 -148 -10 -30 -22 -58 -28 -62 -5 -4 -7 -8 -3 -8 4 0 0 -19 -8 -42
-22 -64 -63 -222 -58 -227 2 -2 15 1 29 7 23 11 25 10 23 -13 -1 -14 -5 -25
-9 -25 -7 0 -14 -29 -25 -104 -7 -43 9 -44 20 -1 4 14 18 50 31 80 14 29 25
60 25 68 0 7 3 17 7 21 4 3 8 12 9 19 2 7 5 21 8 32 3 11 12 45 20 75 8 30 24
87 36 125 11 39 23 81 26 95 2 14 7 32 11 40 3 8 7 17 8 20 22 59 40 97 97
214 38 76 71 136 74 133 3 -2 -20 -74 -51 -158 -31 -85 -58 -161 -60 -169 -3
-14 -48 -144 -110 -320 -13 -36 -26 -85 -30 -110 -3 -25 -9 -61 -12 -80 -3
-19 -16 -66 -29 -105 -23 -66 -175 -652 -188 -726 -25 -134 -31 -180 -41 -274
-4 -38 -9 -81 -10 -95 -2 -14 -3 -42 -4 -63 -1 -21 -5 -36 -9 -33 -9 6 -7 281
4 351 4 28 6 79 5 113 0 35 4 82 10 104 13 48 7 59 -12 21 -8 -15 -21 -28 -29
-28 -9 0 -21 -22 -32 -65 -26 -96 -29 -120 -18 -120 5 0 10 5 10 10 0 6 4 10
9 10 14 0 18 -31 8 -69 -5 -18 -10 -42 -12 -53 -9 -44 -18 -64 -39 -80 -20
-16 -21 -24 -21 -220 0 -263 9 -353 42 -395 13 -18 28 -33 33 -33 5 0 15 -6
22 -14 8 -7 54 -28 103 -45 50 -18 102 -37 117 -43 15 -5 28 -9 30 -8 2 1 15
-3 29 -8 14 -6 48 -13 75 -16 27 -3 76 -9 109 -13 102 -12 268 -4 297 14 5 2
16 6 27 8 39 7 110 46 187 101 43 31 81 59 84 63 3 3 21 19 40 35 128 104 677
644 830 816 41 46 113 124 160 173 201 210 247 261 351 388 42 52 106 130 143
174 36 44 113 143 171 220 58 77 109 145 115 152 6 7 15 24 22 38 6 14 15 25
19 25 5 0 18 18 29 40 11 22 25 40 30 40 6 0 10 5 10 10 0 11 34 63 58 88 6 7
12 17 12 22 0 5 6 15 13 22 7 7 26 34 41 60 47 80 70 94 159 93 42 0 77 3 77
7 0 5 7 8 15 8 8 0 23 4 33 9 9 5 31 15 47 22 17 8 32 17 35 20 3 3 32 20 65
38 32 18 71 41 85 50 50 35 51 34 31 -16 -17 -43 -29 -72 -88 -203 -9 -19 -26
-57 -39 -84 -13 -28 -24 -54 -24 -59 0 -5 -6 -23 -14 -40 -8 -18 -38 -90 -66
-162 -28 -71 -58 -143 -66 -159 -8 -16 -14 -36 -14 -46 0 -9 -4 -20 -9 -25
-11 -12 -64 -183 -87 -280 -4 -16 -8 -34 -10 -40 -1 -5 -5 -23 -8 -40 -3 -16
-8 -41 -11 -54 -9 -48 -19 -137 -17 -169 2 -52 40 -120 82 -148 37 -25 142
-57 225 -70 22 -3 43 -8 46 -10 4 -2 47 -6 96 -8 70 -4 100 -1 148 15 52 18
105 59 105 82 0 4 9 18 21 30 11 12 42 65 68 117 61 123 90 173 173 297 37 56
68 105 68 108 0 4 6 13 13 20 6 8 39 57 72 111 33 53 75 118 92 145 31 45 40
69 28 69 -7 0 -54 -40 -82 -69 -20 -21 -23 -21 -17 -5 4 10 13 24 20 29 6 6
44 55 84 110 40 55 84 111 96 124 l24 23 -4 -48 c-2 -27 -4 -55 -5 -62 -1 -7
-5 -10 -11 -7 -11 7 -12 -5 -15 -115 -1 -68 6 -137 21 -182 3 -10 1 -18 -5
-18 -10 0 -19 22 -27 67 -3 16 -10 46 -16 68 -13 49 -16 66 -17 85 -1 12 -3
13 -10 1 -5 -7 -8 -43 -7 -79 2 -62 2 -64 -14 -44 -17 20 -17 19 -14 -21 1
-23 3 -42 4 -42 1 0 3 -14 5 -31 6 -54 34 -137 62 -179 48 -73 112 -118 228
-160 28 -10 57 -24 65 -31 16 -14 82 -43 109 -49 148 -34 154 -34 246 -12 123
30 252 125 410 301 6 6 41 49 79 96 38 47 80 95 93 106 12 12 23 25 23 29 0 4
8 15 18 24 9 9 35 39 57 66 45 57 54 65 76 65 17 0 39 -39 39 -71 0 -48 72
-159 162 -250 38 -38 120 -85 165 -93 10 -2 45 -13 78 -24 33 -11 72 -18 85
-17 14 1 33 3 42 4 25 2 80 59 188 195 8 10 23 27 33 38 9 10 17 21 17 24 0 3
6 11 13 18 18 19 83 96 182 216 48 58 96 115 106 128 11 12 19 26 19 30 0 5
11 19 24 31 17 16 26 19 31 11 10 -17 12 -170 2 -170 -5 0 -5 -5 -2 -10 4 -6
8 -48 9 -93 4 -93 10 -125 39 -182 39 -79 77 -102 186 -110 64 -4 82 -7 146
-20 69 -15 156 -6 204 21 43 24 107 93 135 146 47 87 184 298 216 332 22 23
47 57 57 76 10 19 34 60 53 90 31 47 60 103 60 114 0 2 -9 6 -21 9 -13 3 -28
-2 -40 -14 -10 -10 -21 -19 -24 -19 -7 0 33 69 66 114 16 22 29 47 28 55 0 9
-3 11 -5 5 -3 -7 -13 -10 -24 -7 -12 3 -20 -2 -25 -17 -4 -12 -9 -19 -12 -17
-2 3 3 20 12 38 13 25 19 29 27 18 7 -10 8 -8 3 8 -4 14 6 45 29 90 44 84 83
153 90 160 12 13 -3 -56 -22 -98 -60 -130 -61 -163 -2 -56 30 53 98 211 104
242 2 6 10 26 19 45 l16 35 -4 -30 c-2 -16 -6 -70 -10 -120 -4 -49 -8 -114
-11 -142 -9 -113 -18 -346 -14 -368 1 -5 1 -14 0 -20 -4 -20 7 -314 14 -365
10 -75 42 -123 99 -148 87 -39 207 -73 261 -75 31 -1 56 -6 56 -10 0 -5 5 -5
10 -2 9 6 33 12 78 19 26 4 138 117 207 208 39 50 77 99 85 108 17 19 21 25
89 135 27 44 61 106 76 138 15 31 29 57 30 57 2 0 13 -21 26 -47 68 -143 183
-236 364 -298 77 -26 161 -32 244 -18 87 15 293 67 342 86 33 14 61 24 77 29
4 1 12 6 17 10 32 26 235 164 300 205 75 46 115 86 101 101 -4 4 -25 -3 -46
-14 -26 -15 -37 -17 -33 -8 3 8 9 14 14 14 14 0 154 100 195 138 7 7 24 18 36
25 54 29 98 64 112 88 20 34 20 45 1 29 -22 -18 -18 3 6 34 20 25 92 96 152
149 13 12 32 36 40 53 9 17 32 50 51 73 42 50 43 55 14 48 -16 -4 -9 7 27 43
48 49 64 83 44 95 -6 4 5 23 25 45 19 21 40 57 46 79 6 22 15 43 20 46 6 3 10
14 10 23 0 11 -10 6 -35 -18 -19 -19 -35 -29 -35 -22 0 7 6 12 13 12 9 0 8 3
-2 9 -9 6 -44 -22 -121 -98 -237 -233 -345 -333 -496 -462 -88 -73 -165 -138
-171 -144 -54 -45 -332 -251 -395 -292 -96 -62 -120 -70 -236 -80 -65 -5 -76
-3 -102 16 -35 26 -40 26 -40 4 0 -15 -2 -16 -10 -3 -8 12 -10 12 -16 -3 -4
-11 1 -26 13 -40 11 -12 23 -29 27 -37 4 -8 -11 5 -34 30 -59 63 -86 119 -81
168 2 21 17 13 28 -15 10 -27 10 -27 8 -3 -1 14 -5 32 -8 40 -34 88 -40 123
-41 250 -2 137 9 249 14 145 1 -27 3 -54 5 -60 1 -5 3 -22 3 -36 1 -14 9 -34
17 -45 14 -17 15 -12 12 61 -2 43 1 100 6 125 5 25 10 54 11 65 1 11 7 34 13
50 7 17 19 59 28 95 23 92 27 95 238 208 31 17 57 29 57 26 0 -3 13 4 30 16
16 12 42 24 57 26 51 10 197 108 276 186 74 74 95 107 61 94 -9 -3 -18 -6 -20
-6 -2 0 -4 -6 -4 -13 0 -8 -18 -28 -40 -46 -46 -36 -52 -30 -14 14 77 90 110
125 117 125 5 0 5 -6 1 -12 -5 -7 11 5 35 27 23 22 47 49 53 59 9 16 7 18 -11
13 -11 -3 -21 -1 -21 4 0 5 4 9 8 9 5 0 20 9 33 20 13 12 52 41 87 65 58 42
76 65 51 65 -6 0 3 16 21 36 17 20 43 62 57 93 14 31 32 70 41 88 9 18 13 35
10 38 -3 4 -36 -38 -71 -93 -69 -105 -112 -155 -161 -187 l-29 -20 19 30 c10
17 23 35 29 41 5 6 19 23 30 38 11 16 34 47 51 70 42 56 104 155 104 164 0 5
11 19 25 32 14 13 25 28 25 34 0 6 9 29 20 51 11 22 17 30 14 18 -3 -13 -7
-35 -10 -50 -3 -16 -7 -36 -10 -45 -3 -10 -1 -18 4 -18 10 0 52 81 52 99 0 5
4 20 9 33 5 13 10 26 11 30 1 4 8 29 16 55 26 86 35 181 21 238 -16 66 -105
145 -208 184 -46 17 -111 45 -144 61 -73 37 -90 41 -181 47 -75 5 -121 -10
-214 -69 -19 -12 -37 -23 -40 -23 -25 -6 -60 -31 -56 -41 2 -6 -14 -29 -36
-50 -22 -22 -62 -72 -89 -111 -27 -40 -52 -73 -55 -73 -4 0 1 11 10 25 31 47
15 39 -40 -20 l-56 -60 46 60 c25 33 72 89 105 125 33 35 57 69 54 73 -6 10
-162 -152 -163 -170 0 -6 -4 -13 -8 -15 -5 -1 -33 -36 -62 -77 -29 -41 -76
-106 -104 -145 -70 -95 -235 -367 -242 -396 0 -3 -26 -59 -58 -124 -31 -66
-77 -169 -102 -230 -25 -61 -49 -120 -53 -131 -12 -27 -45 -119 -46 -125 0 -3
-3 -9 -6 -15 -8 -13 -28 -76 -34 -104 -2 -13 -7 -30 -9 -39 -3 -9 -8 -33 -10
-52 -3 -19 -10 -58 -15 -86 -9 -46 -15 -99 -25 -215 -3 -40 -95 -214 -144
-274 -5 -6 -27 -39 -50 -75 -58 -90 -63 -98 -96 -139 -16 -20 -41 -56 -57 -81
-47 -76 -122 -114 -161 -82 -26 21 -12 367 22 567 6 33 13 71 15 85 2 14 15
81 30 150 14 69 28 136 30 150 20 109 129 513 160 593 8 20 13 37 10 37 -2 0
7 30 21 68 14 37 28 74 30 82 3 16 68 189 104 280 12 30 24 65 27 78 3 12 9
22 14 22 5 0 9 4 9 9 0 5 29 71 65 146 36 76 65 138 65 140 0 2 42 77 94 168
52 90 100 175 108 188 7 13 16 26 19 29 3 3 9 12 12 20 4 8 16 29 27 45 11 17
23 37 27 45 15 32 171 288 206 337 20 29 37 56 37 60 0 14 62 74 84 83 12 4
69 17 126 28 126 25 155 30 268 47 21 3 49 8 62 10 14 3 41 8 60 10 19 3 44 7
55 9 11 2 45 8 75 12 56 8 64 10 78 14 4 1 10 2 14 1 4 0 31 4 60 9 29 6 82
15 118 20 36 5 76 12 90 15 26 4 240 34 297 40 17 2 51 7 75 10 24 4 63 9 88
12 25 2 56 6 70 8 22 3 91 11 170 20 14 1 57 6 95 9 39 4 86 9 105 11 91 10
211 19 425 31 61 3 144 8 185 10 41 3 86 5 100 5 15 0 19 3 10 6 -8 3 -18 11
-22 17 -4 6 -33 11 -65 12 -32 1 -59 3 -60 4 -3 3 -19 7 -33 9 -5 0 -10 5 -10
9 0 7 354 7 397 0 43 -8 36 -18 -13 -19 -27 0 -60 -3 -74 -6 -14 -2 -30 -6
-37 -7 -19 -3 -28 -16 -12 -17 8 0 48 1 89 2 41 1 98 3 127 3 28 1 54 4 58 8
4 4 13 4 20 2 7 -3 16 0 21 7 4 7 3 10 -4 5 -5 -3 -12 -2 -14 2 -1 5 -21 16
-43 25 -35 14 -37 16 -15 18 14 1 30 0 35 -1 6 -1 51 -1 100 0 50 1 114 3 143
3 28 1 52 2 52 4 0 1 -13 9 -29 18 -18 9 -55 15 -93 14 -60 0 -99 3 -178 18
-32 6 -33 6 -10 12 13 4 55 6 91 6 37 0 65 3 63 7 -3 4 -17 8 -31 8 -15 0 -24
2 -21 5 5 5 76 12 143 14 30 1 36 4 25 11 -8 5 -78 9 -155 9 -77 0 -151 3
-165 6 -34 9 -172 14 -185 6 -10 -6 -95 -4 -130 3 -11 3 -35 5 -52 5 -18 1
-33 6 -33 11 0 12 10 16 63 25 113 18 -73 25 -283 10 -52 -4 -99 -6 -105 -5
-26 4 -177 11 -235 11 -66 1 -118 -6 -128 -16 -5 -4 41 -9 61 -6 4 0 7 -3 7
-9 0 -5 -3 -10 -7 -11 -36 -5 -193 -17 -306 -23 -28 -2 -55 3 -65 10 -16 12
-15 13 3 10 22 -4 62 19 48 27 -10 6 -97 2 -173 -8 -30 -4 -71 -8 -92 -9 -20
0 -34 -5 -31 -9 3 -4 12 -7 21 -6 10 1 35 0 57 -1 l40 -2 -45 -14 c-88 -28
-187 -36 -199 -16 -9 15 -70 8 -108 -11 -81 -43 -169 -57 -218 -37 -18 7 -17
8 10 15 53 12 51 15 -5 10 -30 -2 -87 -11 -125 -19 -39 -8 -82 -17 -95 -19
-46 -9 -110 -28 -110 -33 0 -11 149 15 203 35 17 7 30 6 41 -2 24 -18 6 -34
-44 -42 -107 -17 -145 -22 -235 -30 -38 -4 -78 -9 -87 -11 -29 -8 -62 -14
-108 -20 l-45 -5 50 20 c28 10 67 22 88 26 55 9 35 27 -21 20 -26 -4 -58 -9
-72 -12 -85 -17 -81 -18 -71 10 13 35 93 165 156 257 57 84 66 101 79 156 6
28 -25 88 -48 92 -10 2 -30 14 -44 27 -14 13 -31 21 -38 18 -7 -2 -21 4 -31
15 -10 11 -29 32 -42 46 -35 39 -94 39 -128 0 -16 -17 -23 -20 -23 -10 0 8 5
18 10 21 34 21 -17 75 -72 75 -23 0 -31 -7 -76 -64 -12 -16 -22 -25 -22 -21 0
11 34 69 45 77 5 4 7 10 3 13 -3 4 -18 -9 -32 -28z m2001 -523 c-3 -3 -12 -4
-19 -1 -8 3 -5 6 6 6 11 1 17 -2 13 -5z m-2347 -134 c0 -5 -5 -10 -11 -10 -5
0 -7 5 -4 10 3 6 8 10 11 10 2 0 4 -4 4 -10z m-95 -120 c5 -8 -115 -33 -124
-25 -8 8 3 14 39 20 19 3 35 7 37 8 6 7 43 5 48 -3z m1244 -1364 c29 -35 20
-83 -38 -199 -32 -61 -67 -128 -79 -147 -12 -19 -25 -42 -29 -50 -22 -49 -268
-393 -332 -464 -87 -97 -253 -238 -265 -225 -2 2 6 33 18 69 24 69 30 83 69
173 15 31 26 60 26 64 -1 3 3 9 8 12 5 3 19 26 31 51 12 25 40 77 62 115 23
39 46 82 53 98 6 15 15 27 19 27 4 0 8 5 8 10 0 11 93 153 114 176 6 7 18 20
26 31 53 66 96 120 105 129 5 6 21 26 35 44 89 119 126 138 169 86z m-9380
-338 c-52 -67 -67 -73 -39 -17 30 59 39 69 61 69 16 0 13 -9 -22 -52z m226
-131 c-16 -22 -34 -60 -83 -170 -30 -69 -41 -70 -13 -1 46 117 91 205 101 199
8 -5 6 -14 -5 -28z m-190 -324 c-4 -10 -8 -25 -10 -33 -2 -8 -8 -28 -14 -44
-10 -26 -26 -54 -110 -199 -13 -23 -46 -75 -72 -115 -26 -40 -51 -82 -54 -93
-4 -10 -11 -19 -16 -19 -13 0 -11 9 10 38 10 15 49 83 86 152 37 69 75 139 84
155 9 17 18 32 21 35 3 3 20 35 39 73 18 37 36 67 38 67 3 0 2 -8 -2 -17z
m4366 -53 c53 -29 -5 -187 -169 -470 -30 -52 -59 -99 -64 -105 -5 -5 -37 -49
-72 -98 -35 -48 -73 -97 -85 -110 -71 -76 -91 -96 -138 -135 -29 -24 -57 -42
-62 -40 -10 4 23 114 41 136 7 8 12 16 10 16 -4 1 7 37 19 58 5 10 9 25 9 33
0 8 5 15 10 15 6 0 9 3 8 8 -1 4 4 18 9 32 21 50 57 125 62 130 3 3 13 19 22
35 24 47 43 80 50 85 3 3 28 43 57 90 89 149 194 289 232 314 30 19 36 19 61
6z m681 -532 c-7 -7 -12 -20 -12 -30 0 -10 -4 -18 -9 -18 -5 0 -11 -8 -15 -17
-3 -10 -11 -27 -18 -38 -7 -11 -29 -44 -49 -75 -20 -30 -57 -95 -83 -145 -67
-128 -87 -140 -26 -15 89 180 205 368 218 355 3 -3 0 -11 -6 -17z m4598 -463
c0 -9 -60 -65 -69 -65 -18 0 -1 24 32 47 37 24 37 24 37 18z m-5120 -269 c-12
-37 -39 -55 -51 -34 -9 14 0 33 32 67 27 29 35 15 19 -33z m-263 -308 c-20
-29 -47 -64 -59 -78 -13 -14 -35 -41 -50 -60 -41 -54 -88 -106 -88 -98 0 18
220 301 228 293 3 -3 -11 -29 -31 -57z m4423 52 c0 -5 -10 -10 -22 -9 -22 0
-22 1 -3 9 11 5 21 9 23 9 1 1 2 -3 2 -9z m-50 -6 c0 -8 -19 -13 -24 -6 -3 5
1 9 9 9 8 0 15 -2 15 -3z m-9403 -216 c-3 -7 -18 -52 -34 -100 -15 -48 -31
-88 -35 -88 -4 0 -3 14 2 30 5 17 6 30 4 30 -3 0 -2 6 3 13 4 6 8 18 9 24 5
30 38 103 46 103 5 0 7 -6 5 -12z m-113 -634 c-8 -32 -20 -63 -26 -69 -8 -7
-9 -5 -4 8 3 11 9 31 12 45 8 36 26 83 30 79 2 -2 -3 -30 -12 -63z"/>
</g>
</svg>
